<svg xmlns="http://www.w3.org/2000/svg" viewBox="0 0 323.05 91.74"><defs><style>.cls-1{fill:#ffdb96;}</style></defs><g id="Layer_2" data-name="Layer 2"><g id="Layer_1-2" data-name="Layer 1"><g id="Group_267-2" data-name="Group 267-2"><path id="Path_65-2" data-name="Path 65-2" class="cls-1" d="M218.49,16a2.82,2.82,0,0,0-2,.81,3.25,3.25,0,0,0-.91,2.17h5.79a3.52,3.52,0,0,0-.66-2A2.72,2.72,0,0,0,218.49,16Z"/><path id="Path_66-2" data-name="Path 66-2" class="cls-1" d="M134.15,21a1.6,1.6,0,0,0-.69.57,1.56,1.56,0,0,0,.29,2,2.3,2.3,0,0,0,1.56.47,3.54,3.54,0,0,0,1.8-.45,2.66,2.66,0,0,0,1.16-1.21,4.24,4.24,0,0,0,.29-1.76V20a12.86,12.86,0,0,1-2.87.66A7.32,7.32,0,0,0,134.15,21Z"/><path id="Path_67-2" data-name="Path 67-2" class="cls-1" d="M207,16a2.42,2.42,0,0,0-2,1,4.69,4.69,0,0,0-.79,3,4.5,4.5,0,0,0,.84,3,2.55,2.55,0,0,0,2,1,2.47,2.47,0,0,0,2-.94,4.34,4.34,0,0,0,.81-2.88A4.87,4.87,0,0,0,209,17,2.54,2.54,0,0,0,207,16Z"/><path id="Path_68-2" data-name="Path 68-2" class="cls-1" d="M309.33,0H9.79l9.76,16.39L9.79,34.52H309.33l-8.09-17.26Zm-90.6,10.76H221l-2.14,2.73h-1.46ZM85.5,25.15H83.6V10.83h1.9ZM90.39,12.3a4.16,4.16,0,0,1-.3,1.88,2.62,2.62,0,0,1-1.3,1.2l-.43-.7a1.44,1.44,0,0,0,.78-.68,2.78,2.78,0,0,0,.29-1.27h-.92v-2H90.4Zm16.72,12.85h-1.74V18.62a4.87,4.87,0,0,0-.18-1.52,1.43,1.43,0,0,0-.62-.75,1.93,1.93,0,0,0-1-.28,2.44,2.44,0,0,0-1.82.73,3.27,3.27,0,0,0-.72,2.33v6H99.22V18.41a2.85,2.85,0,0,0-.43-1.75,1.61,1.61,0,0,0-1.4-.59,2.6,2.6,0,0,0-1.38.39,2.28,2.28,0,0,0-.91,1.14,6.39,6.39,0,0,0-.28,2.17v5.38H93.06V14.78h1.57v1.46A3.82,3.82,0,0,1,95.93,15a3.73,3.73,0,0,1,1.85-.46,3.4,3.4,0,0,1,1.89.48,2.61,2.61,0,0,1,1,1.34,3.72,3.72,0,0,1,3.2-1.82,3.12,3.12,0,0,1,2.37.86,3.64,3.64,0,0,1,.83,2.63Zm22,0h-1.82v-12l-4.16,12h-1.71L117.27,13V25.15h-1.83V10.83h2.85L121.68,21c.31,1,.54,1.65.68,2.12.17-.52.42-1.29.77-2.3l3.42-10h2.55Zm10,0a3.35,3.35,0,0,1-.35-1.28A6.58,6.58,0,0,1,136.83,25a5.41,5.41,0,0,1-1.94.35,3.8,3.8,0,0,1-2.63-.84,2.75,2.75,0,0,1-.92-2.13,2.9,2.9,0,0,1,.35-1.39,2.77,2.77,0,0,1,.91-1,4.13,4.13,0,0,1,1.26-.58,12.09,12.09,0,0,1,1.56-.26,15.85,15.85,0,0,0,3.14-.61c0-.24,0-.39,0-.46a2,2,0,0,0-.5-1.51,2.93,2.93,0,0,0-2-.6,3.09,3.09,0,0,0-1.83.43,2.68,2.68,0,0,0-.88,1.54l-1.72-.24a4.24,4.24,0,0,1,.78-1.78,3.31,3.31,0,0,1,1.55-1,7,7,0,0,1,2.35-.37,6.35,6.35,0,0,1,2.16.31,2.93,2.93,0,0,1,1.22.79,2.69,2.69,0,0,1,.55,1.2,11,11,0,0,1,.09,1.62V20.8a24.64,24.64,0,0,0,.11,3.1,4,4,0,0,0,.44,1.25Zm9-8.41a2.55,2.55,0,0,0-1.29-.38,1.67,1.67,0,0,0-1,.35,1.84,1.84,0,0,0-.66,1,6.82,6.82,0,0,0-.29,2v5.43H143V14.78h1.58v1.57a4.42,4.42,0,0,1,1.12-1.45,1.91,1.91,0,0,1,1.13-.35,3.44,3.44,0,0,1,1.81.56Zm4.41,8.55A3,3,0,0,1,151,25a1.69,1.69,0,0,1-.74-.8,6.36,6.36,0,0,1-.22-2.08v-6h-1.29V14.78H150V12.21l1.75-1.05v3.62h1.77v1.37h-1.77v6.06a3.17,3.17,0,0,0,.09,1,.76.76,0,0,0,.3.34,1.17,1.17,0,0,0,.6.13,6.48,6.48,0,0,0,.77-.07l.26,1.55A6.62,6.62,0,0,1,152.48,25.29Zm4.57-.14h-1.76V14.78h1.76Zm0-12.29h-1.76v-2h1.76Zm11.1,12.29h-1.76V18.84a4.79,4.79,0,0,0-.21-1.6,1.64,1.64,0,0,0-.73-.85,2.28,2.28,0,0,0-1.22-.32,2.82,2.82,0,0,0-1.94.71,3.54,3.54,0,0,0-.82,2.7v5.67h-1.75V14.78h1.58v1.48a3.72,3.72,0,0,1,3.3-1.71,4.22,4.22,0,0,1,1.72.33,2.67,2.67,0,0,1,1.18.89,3.41,3.41,0,0,1,.55,1.3,10.76,10.76,0,0,1,.1,1.71Zm17.34,0h-9V10.83h1.9V23.46h7.05Zm3.8,0h-1.76V14.78h1.76Zm0-12.29h-1.76v-2h1.76Zm11.1,12.29h-1.76V18.84a4.54,4.54,0,0,0-.2-1.6,1.64,1.64,0,0,0-.73-.85,2.28,2.28,0,0,0-1.22-.32,2.82,2.82,0,0,0-1.94.71,3.54,3.54,0,0,0-.82,2.7v5.67H192V14.78h1.58v1.48a3.72,3.72,0,0,1,3.3-1.71,4.22,4.22,0,0,1,1.72.33,2.67,2.67,0,0,1,1.18.89,3.41,3.41,0,0,1,.55,1.3,10.76,10.76,0,0,1,.1,1.71Zm11.05,0h-1.63V23.84a3.19,3.19,0,0,1-2.9,1.54,4,4,0,0,1-2.28-.68A4.54,4.54,0,0,1,203,22.79a6.65,6.65,0,0,1-.57-2.82,7.3,7.3,0,0,1,.52-2.81,4,4,0,0,1,1.55-1.94,4.13,4.13,0,0,1,2.31-.68,3.43,3.43,0,0,1,1.67.4,3.6,3.6,0,0,1,1.2,1V10.84h1.74Zm11.73-4.73h-7.73a3.91,3.91,0,0,0,1,2.61,2.85,2.85,0,0,0,2.16.91,2.65,2.65,0,0,0,1.65-.51,3.35,3.35,0,0,0,1.09-1.62l1.81.23a4.39,4.39,0,0,1-1.59,2.47A5.39,5.39,0,0,1,215,24a5.47,5.47,0,0,1-1.34-3.94A5.74,5.74,0,0,1,215,16a4.57,4.57,0,0,1,3.5-1.44,4.43,4.43,0,0,1,3.4,1.41,5.63,5.63,0,0,1,1.32,4c0,.1,0,.26,0,.47Zm10.59,4.73H232V18.84a4.54,4.54,0,0,0-.2-1.6,1.64,1.64,0,0,0-.73-.85,2.28,2.28,0,0,0-1.22-.32,2.81,2.81,0,0,0-1.94.71,3.54,3.54,0,0,0-.82,2.7v5.67h-1.75V14.78h1.58v1.48a3.72,3.72,0,0,1,3.3-1.71,4.22,4.22,0,0,1,1.72.33,2.67,2.67,0,0,1,1.18.89,3.41,3.41,0,0,1,.55,1.3,10.76,10.76,0,0,1,.1,1.71Z"/></g><g id="Group_268-2" data-name="Group 268-2"><path id="Path_69-2" data-name="Path 69-2" class="cls-1" d="M204.39,72a2.82,2.82,0,0,0-2,.81,3.21,3.21,0,0,0-.91,2.17h5.79a3.45,3.45,0,0,0-.67-2A2.69,2.69,0,0,0,204.39,72Z"/><path id="Path_70-2" data-name="Path 70-2" class="cls-1" d="M219.88,72a2.77,2.77,0,0,0-2.18,1,5.54,5.54,0,0,0,0,6,2.9,2.9,0,0,0,4.08.28,3.83,3.83,0,0,0,.28-.29,4.45,4.45,0,0,0,.87-3,4.3,4.3,0,0,0-.87-2.92A2.8,2.8,0,0,0,219.88,72Z"/><path id="Path_71-2" data-name="Path 71-2" class="cls-1" d="M151.78,72a2.43,2.43,0,0,0-2,1,4.75,4.75,0,0,0-.79,3,4.5,4.5,0,0,0,.84,3,2.55,2.55,0,0,0,2,1,2.47,2.47,0,0,0,1.95-.94,4.3,4.3,0,0,0,.81-2.88A4.87,4.87,0,0,0,153.8,73,2.54,2.54,0,0,0,151.78,72Z"/><path id="Path_72" data-name="Path 72" class="cls-1" d="M231.24,71.92a2.55,2.55,0,0,0-2,1,4.75,4.75,0,0,0-.86,3,4.52,4.52,0,0,0,.81,3,2.48,2.48,0,0,0,2,1,2.54,2.54,0,0,0,2-1,4.67,4.67,0,0,0,.83-3.07,4.55,4.55,0,0,0-.81-3A2.46,2.46,0,0,0,231.24,71.92Z"/><path id="Path_73" data-name="Path 73" class="cls-1" d="M183.27,72a2.82,2.82,0,0,0-2,.81,3.21,3.21,0,0,0-.91,2.17h5.79a3.45,3.45,0,0,0-.67-2A2.69,2.69,0,0,0,183.27,72Z"/><path id="Path_74" data-name="Path 74" class="cls-1" d="M172.12,68.82a7.23,7.23,0,0,0-2.45-.3h-3V79.46h3.05a7.22,7.22,0,0,0,2.22-.26,3.27,3.27,0,0,0,1.29-.74,4.54,4.54,0,0,0,1.05-1.81,8.63,8.63,0,0,0,.37-2.76,6.7,6.7,0,0,0-.73-3.46A3.71,3.71,0,0,0,172.12,68.82Z"/><path id="Path_75" data-name="Path 75" class="cls-1" d="M323.05,55H0L10.53,72.46,0,91.74H323.05l-8.73-18.36ZM80,68.53H72.28V73H79v1.69H72.28v6.5h-1.9V66.83H80Zm7.25,4.22A2.5,2.5,0,0,0,86,72.36a1.69,1.69,0,0,0-1,.35,1.92,1.92,0,0,0-.65,1,6.82,6.82,0,0,0-.29,2v5.43H82.26V70.78h1.58v1.57A4.17,4.17,0,0,1,85,70.9a1.89,1.89,0,0,1,1.13-.35,3.38,3.38,0,0,1,1.8.56ZM97.4,79a4.18,4.18,0,0,1-1.75,1.78,5,5,0,0,1-2.5.64A4.68,4.68,0,0,1,89.63,80a5.58,5.58,0,0,1-1.35-4,5.36,5.36,0,0,1,1.6-4.27,4.76,4.76,0,0,1,3.26-1.15,4.62,4.62,0,0,1,3.5,1.4A5.29,5.29,0,0,1,98,75.82,6.84,6.84,0,0,1,97.4,79Zm11.09,2.18h-1.76V74.84a4.63,4.63,0,0,0-.2-1.61,1.71,1.71,0,0,0-.73-.84,2.28,2.28,0,0,0-1.22-.32,2.81,2.81,0,0,0-1.94.71,3.55,3.55,0,0,0-.82,2.71v5.66h-1.75V70.78h1.58v1.47a3.72,3.72,0,0,1,3.3-1.7,4.22,4.22,0,0,1,1.72.33,2.73,2.73,0,0,1,1.18.89,3.24,3.24,0,0,1,.54,1.3,8.83,8.83,0,0,1,.1,1.71Zm5.46.14a2.94,2.94,0,0,1-1.49-.3,1.62,1.62,0,0,1-.74-.79,6.1,6.1,0,0,1-.21-2.08v-6h-1.29V70.79h1.29V68.22l1.74-1.06v3.63H115v1.36h-1.77v6.07a2.92,2.92,0,0,0,.1,1,.71.71,0,0,0,.3.34,1.12,1.12,0,0,0,.6.12,5.09,5.09,0,0,0,.77-.06l.25,1.55a7.31,7.31,0,0,1-1.32.15Zm7.51-4.43h-5.4V75.09h5.4Zm12.89,4.3H123.67V66.83H134v1.69h-8.46v4.39h7.92v1.68h-7.92v4.87h8.79Zm10.82,0h-1.76V74.84a5.16,5.16,0,0,0-.2-1.61,1.71,1.71,0,0,0-.73-.84,2.31,2.31,0,0,0-1.23-.32,2.84,2.84,0,0,0-1.94.71,3.55,3.55,0,0,0-.81,2.71v5.66h-1.76V70.78h1.58v1.47a3.74,3.74,0,0,1,3.3-1.7,4.3,4.3,0,0,1,1.73.33,2.7,2.7,0,0,1,1.17.89,3.41,3.41,0,0,1,.55,1.3,10.76,10.76,0,0,1,.1,1.71Zm11.05,0h-1.63V79.84a3.19,3.19,0,0,1-2.9,1.54,4,4,0,0,1-2.28-.68,4.47,4.47,0,0,1-1.61-1.91,6.5,6.5,0,0,1-.57-2.82,7.12,7.12,0,0,1,.52-2.81,4,4,0,0,1,1.55-1.94,4.13,4.13,0,0,1,2.31-.68A3.47,3.47,0,0,1,154.47,72V66.83h1.75Zm20-4.35a7.24,7.24,0,0,1-1,2.09,5.35,5.35,0,0,1-1.3,1.3,5.47,5.47,0,0,1-1.71.72,9.93,9.93,0,0,1-2.3.24h-5.17V66.83h4.93a12.14,12.14,0,0,1,2.55.21,4.92,4.92,0,0,1,2.1,1A5.79,5.79,0,0,1,176,70.51a9.59,9.59,0,0,1,.56,3.4,9.8,9.8,0,0,1-.38,2.9ZM188,76.42h-7.73a4,4,0,0,0,1,2.62,2.87,2.87,0,0,0,2.17.91,2.71,2.71,0,0,0,1.65-.51,3.46,3.46,0,0,0,1.09-1.62l1.81.22a4.36,4.36,0,0,1-1.59,2.47,5.39,5.39,0,0,1-6.58-.52,5.46,5.46,0,0,1-1.33-3.93A5.72,5.72,0,0,1,179.75,72a4.54,4.54,0,0,1,3.5-1.45,4.47,4.47,0,0,1,3.4,1.42A5.61,5.61,0,0,1,188,76c0,.1,0,.26,0,.46Zm6.68,4.74H193l-3.94-10.37h1.85L193.13,77c.24.67.46,1.37.66,2.09.16-.55.38-1.21.66-2l2.3-6.33h1.81Zm14.44-4.74h-7.73a4,4,0,0,0,1,2.62,2.86,2.86,0,0,0,2.16.91,2.72,2.72,0,0,0,1.66-.51,3.44,3.44,0,0,0,1.08-1.62L209,78a4.43,4.43,0,0,1-1.6,2.47,4.94,4.94,0,0,1-7.91-4.45A5.72,5.72,0,0,1,200.87,72a4.54,4.54,0,0,1,3.5-1.45,4.44,4.44,0,0,1,3.4,1.42,5.61,5.61,0,0,1,1.32,4c0,.1,0,.26,0,.46ZM213,81.16h-1.76V66.83H213ZM224.14,79a4.29,4.29,0,0,1-1.75,1.78,5.11,5.11,0,0,1-2.51.63,4.64,4.64,0,0,1-3.52-1.4A5.56,5.56,0,0,1,215,76a5.36,5.36,0,0,1,1.6-4.27,4.86,4.86,0,0,1,3.26-1.15,4.65,4.65,0,0,1,3.5,1.4,5.35,5.35,0,0,1,1.36,3.87,7,7,0,0,1-.6,3.15Zm11.09-.22a4.34,4.34,0,0,1-3.95,2.63A3.34,3.34,0,0,1,229.7,81a3.57,3.57,0,0,1-1.14-.94v5H226.8V70.78h1.6v1.35a3.94,3.94,0,0,1,1.28-1.19,3.46,3.46,0,0,1,1.73-.39,4.05,4.05,0,0,1,2.34.68,4.2,4.2,0,0,1,1.53,1.93,7.05,7.05,0,0,1,.52,2.73,6.86,6.86,0,0,1-.57,2.86Zm11.66-2.34h-7.74a4,4,0,0,0,1,2.62,2.87,2.87,0,0,0,2.17.91,2.71,2.71,0,0,0,1.65-.51A3.37,3.37,0,0,0,245,77.82l1.82.22a4.46,4.46,0,0,1-1.59,2.47,5.39,5.39,0,0,1-6.58-.52,5.46,5.46,0,0,1-1.33-3.93A5.71,5.71,0,0,1,238.68,72a4.56,4.56,0,0,1,3.5-1.45,4.44,4.44,0,0,1,3.4,1.42,5.61,5.61,0,0,1,1.32,4c0,.1,0,.26,0,.46Zm7.16-3.67a2.52,2.52,0,0,0-1.28-.38,1.69,1.69,0,0,0-1,.35,1.88,1.88,0,0,0-.65,1,6.74,6.74,0,0,0-.3,2v5.43H249V70.78h1.59v1.57a4.26,4.26,0,0,1,1.11-1.45,1.93,1.93,0,0,1,1.13-.35,3.42,3.42,0,0,1,1.81.56Z"/><path id="Path_76" data-name="Path 76" class="cls-1" d="M242.2,72a2.82,2.82,0,0,0-2,.81,3.21,3.21,0,0,0-.91,2.17H245a3.52,3.52,0,0,0-.66-2A2.72,2.72,0,0,0,242.2,72Z"/><path id="Path_77" data-name="Path 77" class="cls-1" d="M93.15,72A2.79,2.79,0,0,0,91,73a5.54,5.54,0,0,0,0,6,2.9,2.9,0,0,0,4.08.28,2.54,2.54,0,0,0,.28-.29,4.45,4.45,0,0,0,.87-3A4.25,4.25,0,0,0,95.32,73,2.8,2.8,0,0,0,93.15,72Z"/></g></g></g></svg>