<svg xmlns="http://www.w3.org/2000/svg" viewBox="0 0 3841.19 2160.21"><defs><style>.cls-1{isolation:isolate;}.cls-2{fill:#b19dd1;}.cls-3{fill:#c1b9cd;}.cls-4{fill:#c1b9ce;}.cls-5{fill:#826ca4;}.cls-6{fill:#8a72af;}.cls-7{fill:#8b7aa6;}.cls-8{fill:#9585b0;}.cls-9{fill:#715996;}.cls-10{fill:#593492;}.cls-11{fill:#483567;}.cls-12{fill:#211437;}</style></defs><g id="Artboard_1" data-name="Artboard 1" class="cls-1"><g id="Background_Image" data-name="Background Image"><path class="cls-2" d="M3842,8V2156H26c-19.49,0-18,1.85-18-17.5Q8,1082,8,25.51c0-2,0-4,0-6C8.11,8.43,8.38,8.14,19,8c3.33,0,6.66,0,10,0Z" transform="translate(-0.91 -1.89)"/><path class="cls-2" d="M3842,8H29C25.7,8,22.37,8,19,8c-10.66.13-10.93.42-11,11.5,0,2,0,4,0,6q0,1056.5,0,2113c0,19.35-1.46,17.5,18,17.5H3842v4l-2,2H4l-2-2V4L4,2H3840l2,2Z" transform="translate(-0.91 -1.89)"/><path class="cls-2" d="M4,2,2,4Q1.42,1.42,4,2Z" transform="translate(-0.91 -1.89)"/><path class="cls-2" d="M3842,4l-2-2Q3842.58,1.42,3842,4Z" transform="translate(-0.91 -1.89)"/><path class="cls-2" d="M2,2160l2,2Q1.42,2162.59,2,2160Z" transform="translate(-0.91 -1.89)"/><path class="cls-2" d="M3840,2162l2-2Q3842.59,2162.58,3840,2162Z" transform="translate(-0.91 -1.89)"/></g><g id="Layer_9_clouds_Image" data-name="Layer 9 clouds Image"><path class="cls-3" d="M3841,1655c-19.93-2.3-39.86-4.69-59.8-6.88-19.79-2.17-39.61-4-59.39-6.21s-39.53-4.59-59.31-6.77c-16.82-1.84-33.67-3.39-50.49-5.24-19.45-2.15-38.87-4.57-58.31-6.72-16.82-1.85-33.67-3.43-50.49-5.26s-33.6-3.91-50.41-5.76c-16.49-1.81-33-3.41-49.49-5.23-16.81-1.84-33.6-3.89-50.41-5.74-16.49-1.82-33-3.43-49.49-5.25-16.81-1.84-33.6-3.88-50.42-5.73-13.68-1.5-27.4-2.78-41.08-4.28-16.49-1.8-32.95-3.77-49.43-5.6-13.52-1.5-27.05-2.87-40.58-4.36-13.84-1.52-27.67-3.15-41.52-4.67-13.52-1.49-27.06-2.85-40.58-4.33-13.84-1.53-27.67-3.18-41.52-4.7-13.35-1.47-26.72-2.82-40.08-4.29-14-1.54-28-3.19-42-4.74-13.19-1.45-26.39-2.8-39.58-4.25-14.18-1.56-28.34-3.23-42.52-4.77-13.52-1.47-27.06-2.79-40.58-4.26-13.68-1.5-27.35-3.12-41-4.64-13.36-1.48-26.72-2.86-40.07-4.33-14.18-1.57-28.34-3.22-42.52-4.79a26.49,26.49,0,0,1-6.8-1.2h7.43c13.33,0,26.67.09,40,0,8.66-.08,17.16.32,25.8-2.72,12.68-4.46,26.38-4.73,39.62-7,16.69-2.83,33.08-7.13,49.73-10.11,13.86-2.48,27.84-4.44,41.83-6,22-2.46,43.62-6.51,65.31-10.51,18.26-3.38,36.45-7.1,55.13-7.79a257.32,257.32,0,0,0,31-3.49c-10.36-.8-20.73-1.49-31.07-2.41-18.34-1.64-36.75-2.49-55-4.73-14.32-1.74-28.73-2.76-43.08-4.34-17.65-1.94-35.07-5.35-52.56-8.33q-37-6.32-74-12.57c-16-2.71-32-5.49-48.08-8-17-2.71-34-5.58-51.14-7.68-19.68-2.42-38.72-7.64-57.94-12.11-18.59-4.32-37.15-8.76-55.77-12.94-9.29-2.09-16-8.65-23.82-13.22-2.42-1.41-.77-5.31,3-7.1a60.39,60.39,0,0,1,20.05-5.72c26.11-2.38,52.2-5,78.55-7.06-8.62-1.69-17.23-3.45-25.86-5.08-15.32-2.88-30.6-6-46-8.4-11.62-1.77-23.41-2.48-35.14-3.63-22.28-2.17-44.61-3.78-66.61-8.33-17.55-3.63-35.39-5.35-53.14-7.73a96.26,96.26,0,0,1-15.06-2.93H2432c30.83,0,61.66-.34,92.49.09,25.25.35,50.46,2.14,75.66,3.77,14.59,1,29.21,1.68,43.82,2.07,22.14.59,44.3.32,66.41,1.33,14.89.69,29.68,3.15,44.54,4.49,23.64,2.15,47,6.57,70.52,9.41,13.64,1.65,27.36,3,40.85,5.78.61.13,1.36,0,1.74,1.1h-67c-28,0-56,.19-84-.08-15.38-.15-30.37,3-45.55,4.43-11.85,1.16-23.56,3.56-35.69,4.85,4.53.91,9.08,1.76,13.59,2.76,16.09,3.58,32.53,4.35,48.85,6.1,17.15,1.83,34.26,4,51.42,5.69,13.21,1.27,26.46,2.26,39.57,4.28,23.76,3.68,47.46,7.73,71.2,11.51q33.4,5.33,66.84,10.42c23.93,3.66,47.85,7.35,71.81,10.74,16.58,2.35,33.23,4.21,49.85,6.29,18.1,2.27,36.16,4.94,54.3,6.67a268.41,268.41,0,0,1,49.3,9.34c3.91,1.14,7.52,2.56,10.84,6.72-20.05,5.7-40.09,9.15-60.11,13.27,7.39,0,14.77.07,22.15,0,17.49-.19,34.78,2.18,52.14,3.81,12.72,1.19,25.49,2,38.2,3.24,12,1.23,24,2.87,36,4.37,14.64,1.83,29.28,3.72,43.92,5.56,15.3,1.91,30.58,4.07,45.92,5.6,15.51,1.55,30.94,4.24,46.56,4.41,8,.08,15.81,2,23.81,1.4-9.61.08-19.22,1.21-28.82-.17a34.59,34.59,0,0,0-5-.14c-26.67-.06-53.34.27-80-.3-21.11-.45-42.23-1.34-63.33-2.06-16.62-.58-33.23-1.25-49.84-1.78-22.91-.74-45.76-2.21-68.56-4.76-13.68-1.52-27.46-2.17-41.2-3.27-11.39-.91-22.77-1.89-34.31-2.18,11.38,3.43,22.82,6.66,34.13,10.32,48,15.54,98,22.17,147.08,32.92q40.35,8.82,81,16.27c31.65,5.75,63.24,11.81,94.86,17.73,30,5.61,60,11.29,90,16.79,46.16,8.47,92.39,16.55,138.49,25.31,32,6.08,64.22,10,96.36,14.76,35.59,5.28,71.25,10.07,106.88,15,3.76.52,7.57.75,11.36,1.12Zm-804.14-176.41c-4.18-2.07-7.33-3.33-11-.92C3029.35,1478.48,3032.54,1479.27,3036.86,1478.59Z" transform="translate(-0.91 -1.89)"/><path class="cls-4" d="M1748.27,1388.26c34.7-9.8,69.85-13.14,105.5-17.62-5.42-2.72-10.74-1.38-15.73-2.48-28.89-6.38-58.5-7.64-87.71-11.87-12.12-1.76-24.52-2.06-36.79-2.14-40.5-.27-81-.08-121.49-.21-13.48,0-27-.51-40.43-.77a7.32,7.32,0,0,1-4.27-1c-5.53-3.82-11.75-4.61-18.39-5.13-20.13-1.61-40.26-.35-60.39-.8-13.64-.31-27,2.29-40.52,3.68-16.14,1.66-32.17,4-48.22,6.33-12.23,1.76-24.45,3.62-36.63,5.67-15.3,2.58-30.75,2.55-46.19,3.25-23.39,1-46.83,1.39-70.16,3.72-.5.05-1,0-1.5.05-16.47.37-32.95.53-49.42,1.14-45.29,1.67-90.61.26-135.91,1.06-13.89.24-26.91-1.54-39.77-7.07-16.33-7-33.13-13-49.72-19.41-.55-.21-1-.57-2.9-1.6,3.23,0,5,0,6.71,0a703,703,0,0,0,84.62-4.28q42-4.53,83.92-10.48c23.31-3.32,46.79-5.46,70.16-8.37q34.07-4.25,68.11-8.57c18-2.28,36.26-.84,54.38-1.54,13.93-.55,27.88-.38,41.85-1-.14-2.34-1.67-1.67-2.63-1.75-13.78-1.16-27.6-1.06-41.42-1.07l-92,0a45.68,45.68,0,0,1-7-.36c94.13-5.81,187.27-20.3,280.91-30.51-11.54-3.33-23.28-2.58-34.81-2.76-40.32-.63-80.66-.39-121-.23-19.2.08-38-3.31-57-5.51-16.14-1.88-32.19-4.44-48.31-6.54-15.78-2.06-31.55-4.42-47.4-5.7-14.73-1.2-29.41-2.77-44.09-4.41-12.52-1.39-25-3-37.55-4.42-7.74-.86-15.57-1-23.59-2.91,4.29-4.72,10.14-4.43,15.41-5.47,17.86-3.5,35.91-4.32,54.08-4.2,16.47.11,33-.34,49.41-1.06,22.22-1,44.43-1.92,66.47-5.48,10.28-1.66,20.84-1.81,31.29-2.11,26.43-.78,52.84-2.06,79.3-2.33q70.2-.75,140.39-.75c2.75,0,5.55-.26,8.42,1.58-4.57,1.73-9.14,1.43-13.5,2-18.09,2.23-36.23,4.12-54.37,6-14,1.48-28.17,2.11-42.07,4.36-19.47,3.15-39.06,5.88-58.1,11.3-1.19.34-2.7.28-3.88,2.32,45.15,2.35,89.95,1.07,134.73,1.29s89.63,0,134.45.38c-16.83,1.1-33.69,1.94-50.49,3.36s-33.72,3.83-49.87,9.84c4.73,3.53,10.24,3.92,15.39,5.25a215.25,215.25,0,0,0,47.28,6.3c7.26.23,13.53,4.26,20.48,5.72q36.24,7.65,72.13,16.76c6.38,1.62,11.93,1.14,17.45-3.69,6.15-5.39,14.39-6.79,22.44-6.89,16-.21,32-.49,48,.27,11.49.56,23.09,1,34.46,3.81h-10.44c.47,2.55,2.12,1.71,3.23,1.76,18.11.74,36,3.75,53.93,5.77,13.68,1.54,27.38,3,41.08,4.31q25.26,2.51,50.53,4.82c12.07,1.12,24.15,2,36.21,3.24,13,1.32,26,2.86,39.07,4.33,13.68,1.54,27.37,3,41,4.69,20.24,2.52,40.59,4,60.73,7.46,11.09,1.91,22.33,3,33.51,4.48a8.12,8.12,0,0,1,2.88.58c.8.44,1.78,1.36,1.85,2.15.11,1.34-1.33,1.07-2.25,1.26-15.1,3.24-30.43,5-45.73,7-14,1.79-27.95,3.69-41.95,5.29-12.36,1.41-24.76,2.44-37.14,3.7-15,1.52-30,3.13-45,4.65-11.39,1.16-22.8,2.17-34.19,3.36-17.64,1.85-35.28,3.79-52.93,5.72-6.59.72-13.18,1.56-19.77,2.27-2,.21-3.93.19-5.84,2,12.08,0,23.74.09,35.4,0a563.64,563.64,0,0,1,56.81,2.25c13,1.18,25.9,3.94,38.84,6,11,1.73,22.16,1.8,33.22,2.87,22.75,2.21,45.6,3.74,68.16,9.27C2091.46,1392.76,1755.47,1391,1748.27,1388.26Zm-87.18-59.38c3.48.56,6.79-.39,7.2-4.09s-3.1-4.86-6.14-5.71a37.41,37.41,0,0,0-4.32-1c-2.52-.37-4,1.29-5.2,3.1-1.31,2-.05,3.61,1.33,5.23C1655.9,1328.75,1658.28,1329.27,1661.09,1328.88Z" transform="translate(-0.91 -1.89)"/><path class="cls-4" d="M712.86,1152.24l-47.79-2c-.83,0-1.66-.12-2.49-.14-16-.39-32-.53-47.91-1.23-19.61-.85-39.23-1.39-58.84-2.07-17.94-.63-35.88-1.38-53.83-2-10.29-.36-20.56-.78-30.93-.13,7.83,1.13,15.68,2.13,23.49,3.42,16.36,2.71,32.66,5.78,49.05,8.29,10.48,1.6,21.06,2.67,31.62,3.63,17,1.54,34,3.71,50.85,6.32L689,1176c16.55,2.57,33.07,5.32,49.65,7.64a210.34,210.34,0,0,0,24.79,2.19c14.94.31,29.18,4.28,43.59,7.45,11.67,2.56,23.31,5.25,35,7.87,2,.45,4.11.73,3.88,3.55s-2.58,2.08-4.21,2.08c-18.49,0-37,.25-55.49-.07q-28.93-.51-57.84-1.94c-18.56-.9-37-3.6-55.44-5.51-17.66-1.82-35.2-4.85-53-5.42-2.15-.07-4.27-.71-6.42-.8-6.28-.26-12.2-.29-18.09,3.47-18.71,11.93-39.91,18-60.89,24.44a24.82,24.82,0,0,0-8.65,4.43h231c-3.54,3.21-7.57,3.36-11.63,3.49-70.8,2.23-141.61.75-212.42,1.22-1.83,0-3.66,0-6.33,0,5.81,3.32,11.65,3,17.14,3.77,13.9,1.94,27.84,3.81,41.82,4.89,9.9.76,19.71,2.54,29.72,2.35a220.37,220.37,0,0,1,26.93.79c11.47,1.2,22.87-.51,34.2-2.34a27,27,0,0,1,3.47-.36c54.63-1.4,109.28-1,163.92-1.08,1.61,0,3.36-.39,4.49,1.4.88,1.4,2.64,2.79,2.2,4.3-.59,2.07-2.87,1-4.37,1-16.17,0-32.35.43-48.5-.16-39.3-1.44-78.62-.33-117.93-.94-6.31-.09-12.61-.56-18.92-.75-1.32,0-3.49-.74-3.52,1.51,0,1.78,1.93,1.36,3.18,1.51q34.81,4.29,69.47,9.66c22,3.41,43.87,7.09,66,9.53,22.62,2.5,44.78,7.67,67,12.27,17.71,3.66,35.69,5.66,53.53,8.55,12.54,2,25.08,4,37.48,7.18-14.39-1-28.78-1.81-43.16-2.88-13.07-1-26.11-2.91-39.18-3.17-27-.53-54,0-81-.34-19.11-.25-38.26-.74-57.33-2-18.52-1.27-37-3.74-55.44-5.62a58.51,58.51,0,0,0-7.49-.19c-13.31.33-26.58-.59-39.87-1.5,34.19-1.07,68.44.52,102.7-2.09-7.5-1.43-15-3-22.51-4.24a62.48,62.48,0,0,1-11-3.13c-8.22-2.94-16.88-3.65-25.38-4.81-10.77-1.48-19.1-7.23-27.4-13.4-2.46-1.83-1.54-3.38.5-4.59,1.2-.71,2.65-1,5.3-1.94l-280.19-2.59-.19-.64c6.62-1.33,13.2-3,19.88-3.94,21.82-3.19,43.68-6.09,65.51-9.25a39.78,39.78,0,0,0,8.52-2.7c22.33-8.81,45.72-14,68.83-20.12,13.62-3.62,27.38-6.83,40.42-12.48-.32-1.68-1.66-1.43-2.69-1.47-20.41-.86-40.75-2.69-61-5.18-23-2.83-46-6.18-69.1-8.66-19.62-2.11-39.12-5.31-58.87-6.38-30.28-1.63-59.79-7.92-89.15-15.16-23-5.68-46.32-10.27-69.62-14.77-6-1.16-11.77-3.32-18-5.12,1.77-1.27,3.37-.75,4.82-.71,22.12.65,44.24,1.14,66.34,2.14,17.77.8,35.55,1.38,53.33,2,19.62.67,39.22,1.55,58.84,2,16,.35,31.9,1.22,47.84,1.85a14.57,14.57,0,0,0,4.93-.51c-9.88-1.52-19.91-2.41-29.61-4.73-11.93-2.84-24-5.48-35.62-9.47-2.77-.95-5.94-2.09-5.48-5.46a7.78,7.78,0,0,1,6.64-7c9.48-2,19.06-2.54,28.69-2.79,5-.13,10,.2,15-.14,22.15-1.53,43.76,1.57,65,7.51,11.3,3.16,23,3.18,34.5,4.51,22.56,2.61,45.19,4.59,67.61,8.4,16.34,2.78,32.66,5.65,49.26,6.85,17.38,1.26,34.39,5.35,51.56,8.19,7.47,1.24,14.9,2.65,22.36,4Zm-247.39-8.32.84-.36a2.22,2.22,0,0,0-.79-.41c-.27,0-.55.21-.83.32Zm189.08,100.35-.16.22.27,0Z" transform="translate(-0.91 -1.89)"/><path class="cls-3" d="M2478.85,1235.38c-7.61,1.09-15.1-.6-22.66-.41q-15.49.4-31-.09c-23.41-.75-46.79-2.11-70.15-3.76-13.26-.93-26.54-1.51-39.82-2.2-19.76-1-39.55-1.49-59.33-2.18-17.94-.62-35.91-1-53.82-2-38.94-2.24-77.89-1.45-116.84-1.81-4.81,0-8.91,3-13.94,2.14-5.63-1-11.43-1-17.15-2H2076l.43-.91c-4.62-3.28-9.29-6.49-13.85-9.85s-10.17-5.71-13.85-10.48c-1.18-1.53-3.13-.78-4.72-.79-16.33-.07-32.67,0-49-.14-17.47-.19-35-.22-52.4-1.13-12.57-.65-25.07-2.59-37.59-4.06-14.17-1.65-28.26-4.25-42.62-3.71-15.88.59-31.41-2.55-47-4.51-30.46-3.83-60.16-11.88-90.47-16.68-12.05-1.9-23.28-7.36-34.8-11.89h4.73c33.49.06,67-.25,100.48.29,24.43.4,48.85,1.66,73.24,3,12.61.7,25.2,1.55,37.83,1.93,26.26.8,52.54,1.42,78.74,3.16,14.67,1,29.2,4.11,43.81,6.19,20.35,2.89,40.69,5.9,61.08,8.5,19.74,2.52,39.53,4.65,59.31,6.82,16.82,1.85,33.67,3.35,50.48,5.28,18.12,2.07,36.2,4.47,54.3,6.7,14,1.73,28,3.29,42,5.19,16.42,2.23,32.85,4.52,49.21,7.17,21.77,3.53,43.73,5.95,65.24,10.92,15.6,3.6,31.56,4.09,47.34,6.06A82.94,82.94,0,0,1,2478.85,1235.38Z" transform="translate(-0.91 -1.89)"/><path class="cls-4" d="M3164.76,1383H3105v.86h598.56A19.12,19.12,0,0,1,3694,1386q-198.47,0-396.95,0a77,77,0,0,0-9.94.43c5.06.9,10.22,1,15.29,1.4,13.57,1.13,27.21,1.44,40.81,2.31,23.52,1.51,47,3.23,70.56,4.78,12.1.8,24.21,1.36,36.31,2.12,19.89,1.26,39.77,2.61,59.65,3.88q17.16,1.11,34.32,2.08c25.71,1.44,51.42,2.76,77.12,4.25,10.1.59,20.17,1.53,31.74,2.43-10.53,0-19.62.34-28.67-.09-11.6-.55-23.17-1.72-34.75-2.61-55.72-4.29-111.53-.94-167.28-2.25-32.64-.77-65.29-.07-97.91-1-18.82-.56-37.63,0-56.42-.79-26.56-1.11-53.1-2.65-79.65-4-11.61-.61-23.21-1.44-34.83-1.82-17-.57-34-.62-50.91-1.34-4.95-.21-9.92-.73-14.9-.83-2.92,0-11.48-6.82-12.26-9.43-.46-1.54.25-2.13,1.68-2.3a67.91,67.91,0,0,1,7.87-1c26.16,0,52.32,0,78.49.07a8.65,8.65,0,0,1,1.4.22Z" transform="translate(-0.91 -1.89)"/><path class="cls-4" d="M2037.79,1222.59c-14.11.44-28.18-.43-42.24-1.36-8.46-.56-16.92-.24-25.4-1-11.08-1-22.26-.81-33.4-1.28-22.24-1-44.53-1.47-66.72-3.18-19.49-1.5-38.85-4.63-58.32-6.54-9.91-1-19.93-1-29.9-1.15-28.3-.48-56.64-.08-84.89-1.42-22.18-1.06-44.34-3-66.47-5.3-23-2.34-45.53-7-68-12.15a14.72,14.72,0,0,1-4.25-1.16c12.74.74,25.48,1.39,38.2,2.26,11.26.78,22.49,1.88,33.74,2.73q33.76,2.54,67.54,4.93c10.43.75,20.87,1.35,31.31,2.11,21.85,1.59,43.69,3.27,65.54,4.85,10.93.79,21.88,1.38,32.81,2.17,21.68,1.57,43.36,3.24,65,4.83,10.27.75,20.54,1.39,30.81,2.13q33.77,2.43,67.54,4.92c10.27.74,20.53,1.65,30.81,2C2027,1221.11,2032.35,1222.19,2037.79,1222.59Z" transform="translate(-0.91 -1.89)"/><path class="cls-4" d="M2211.12,1391.29c-26.57,2.78-52.87.7-79,2.14,0,.55-.06,1.1-.08,1.66l70.75,8.28c-26.57.06-53.12,1.49-79.67-.2-6.48-.41-12.87-.29-19.09-4.37,6.31-2.86,12.92-2.3,19.21-4.14-4.47-2.4-9.67-.85-14.53-3.37Z" transform="translate(-0.91 -1.89)"/><path class="cls-4" d="M3792.64,1418.7l-130.22-8.14c0-.17,0-.35,0-.52h13c25.64,0,51.27-.09,76.91.14,10.17.09,19.83,3.74,29.76,5.53C3785.43,1416.32,3789,1416.48,3792.64,1418.7Z" transform="translate(-0.91 -1.89)"/></g><g id="Layer_6_Layer_7_Image" data-name="Layer 6 + Layer 7 Image"><path class="cls-5" d="M2588.28,1534.84c9.58,8,18.28,17,27,25.93,22.52,23,47.89,42.06,77.76,54.14,33.76,13.65,64.37,33.21,96.7,49.52,23.86,12,46.78,26.24,72.74,33.8a1.71,1.71,0,0,1,.46.19c16.11,11.89,36.29,12.33,54.19,19.22,20.33,7.83,41.57,12.95,61.88,21,12.48,4.94,26.06,6.65,38.71,11.46,16.5,6.27,32.75,13.11,48.83,20.34,8.8,4,16,10.87,24.8,14.89,16.48,7.49,33,14.8,50.77,19a11.42,11.42,0,0,1,3.75,1.29c15.4,10.41,33.43,13.6,50.84,18.42,4.56,1.27,7.9,3,10.46,7.34,3.36,5.76,9.56,9.17,14,14.14a4.66,4.66,0,0,1,1.32,3L1274.27,1559.4c4.72-3,9.7-3.5,14.35-4.7,8.93-2.29,17.26-6,25.59-9.77,5.15-2.33,10.3-4.69,15.55-6.76,17.65-6.92,30.94-19.91,44.71-32.14,9.73-8.63,17.88-18.83,26.33-28.71a65.29,65.29,0,0,1,7.83-7.68c14.58-12.11,24.34-28.69,38.56-41.16,12.41-10.88,23.36-23.32,35.44-34.52,11.18-10.37,23.57-19.46,35.63-28.87,14.81-11.55,28.85-24.09,45.42-33.36,6.58-3.67,13.71-4.93,20.55-7.38,20.61-7.39,38.28-20,56.72-31.23a298.89,298.89,0,0,0,56.36-45.17,43.19,43.19,0,0,0,4-4.44c8.51-11.36,19.61-20,32.61-24.65,21.44-7.69,38.86-20.88,55.44-35.71a182.13,182.13,0,0,1,20.76-15.57,9.43,9.43,0,0,1,9-1.06c7.52,2.56,14.82,6.28,23.14,5.25a55.53,55.53,0,0,0,27.58-11.64c12.13-9.36,17-23.06,23-36.2,3-6.68,5.91-13.41,9.54-19.79,2.64-4.64,6.14-8.21,11.27-10.06,18-6.5,32-18.75,45.09-32.17,3-3.06,5.08-3,8.46-.91,5.89,3.73,10.11,9.14,15,13.88,6.28,6.13,8.42,6.08,16.2,1.53s12.1-11.67,16.41-19c5.17-8.75,10.58-17.36,15.39-26.3a12.45,12.45,0,0,1,12.16-7c12.66.33,22-5.95,29.65-14.95,8.92-10.43,19.41-16.86,33.57-16.68,8.14.1,16.29-.79,24.44,0,1.49,3.64,4.25,6.28,7,9,7.48,7.31,13.31,15.27,11.09,26.66a27.17,27.17,0,0,0-.05,5.49c.08,7,1.21,8.5,7.91,10.85,5.54,2,6.5,4.15,3.63,9.34a80.91,80.91,0,0,1-5.14,7.31c-1.8,2.53-3,5.66-2.17,8.4,2.78,8.84,1.45,17.84,1.72,26.76a21.47,21.47,0,0,0,1.21,6.83c4.22,11.67,9,23.21,7.85,36.06a7.85,7.85,0,0,0,1.44,4.7c2.34,4,5,7.74,4.84,12.83,0,1.77,1.77,4.18,3.41,5.26,5.45,3.59,8.05,9.15,11,14.5,1.76,3.18,2.33,5.75-2.83,5.66-2.12,0-4.24.71-6.37.87-3.23.24-4.14,2-3.08,4.73,1.39,3.56,3,7,4.67,10.47,1.27,2.65,1.26,4.63-1.75,6.16-8.76,4.46-9.32,5.74-7.11,15.89.34,1.57.42,2.32-1.32,3-3.92,1.47-4.12,4.52-3.33,8.17,2.7,12.41,11.77,21.34,17.53,32.07,4.47,8.33,10.47,16,12.67,25.28,1.57,6.6,4.84,11.41,10.43,14.88,2.25,1.4,4.55,2.74,6.91,4s2.28,3.34,1.56,5.16c-.87,2.2-2.72,1.08-4.25.48s-2.79-1-4.19-1.59-2.63-1.11-3.69.1-.71,2.54-.22,3.8c2.85,7.3,6.23,14.53,11.35,20.32a20.33,20.33,0,0,1,5.34,14.84c-.09,6.82-1,13.88.4,20.43,2.86,13.67,11.09,25.1,18.23,36.78,4.45,7.27,10.06,13.66,8.38,23-.32,1.77,0,3.66-.07,5.49-.2,3.26,1.18,5.93,2.36,8.9,2.73,6.86,7.31,12.74,8.93,20.26,3.23,15,10.25,28.66,16,42.76a6,6,0,0,0,4.19,3.32,85.2,85.2,0,0,0,36.91,2.61c3.2-.48,4.77.31,5.34,3.33,2.55,13.52,11.45,23.2,21.67,30.68,16.33,12,34,21.73,54.57,25.42,12.22,2.19,24.35,5,36.77,5.22,22.16.34,44.32.17,66.48,0a65.21,65.21,0,0,0,13.31-1.36,302.05,302.05,0,0,0,41.1-11.65,46.72,46.72,0,0,0,19-13.31C2575.29,1546.11,2580.92,1539.57,2588.28,1534.84Z" transform="translate(-0.91 -1.89)"/><path class="cls-6" d="M2588.28,1534.84c-7.36,4.73-13,11.27-18.69,17.78a46.72,46.72,0,0,1-19,13.31,302.05,302.05,0,0,1-41.1,11.65,65.21,65.21,0,0,1-13.31,1.36c-22.16.13-44.32.3-66.48,0-12.42-.18-24.55-3-36.77-5.22-20.56-3.69-38.24-13.46-54.57-25.42-10.22-7.48-19.12-17.16-21.67-30.68-.57-3-2.14-3.81-5.34-3.33a85.2,85.2,0,0,1-36.91-2.61,6,6,0,0,1-4.19-3.32c-5.76-14.1-12.78-27.8-16-42.76-1.62-7.52-6.2-13.4-8.93-20.26-1.18-3-2.56-5.64-2.36-8.9.11-1.83-.25-3.72.07-5.49,1.68-9.37-3.93-15.76-8.38-23-7.14-11.68-15.37-23.11-18.23-36.78-1.37-6.55-.49-13.61-.4-20.43a20.33,20.33,0,0,0-5.34-14.84c-5.12-5.79-8.5-13-11.35-20.32-.49-1.26-.74-2.71.22-3.8s2.44-.58,3.69-.1,2.8,1.05,4.19,1.59,3.38,1.72,4.25-.48c.72-1.82.8-3.93-1.56-5.16s-4.66-2.56-6.91-4c-5.59-3.47-8.86-8.28-10.43-14.88-2.2-9.32-8.2-17-12.67-25.28-5.76-10.73-14.83-19.66-17.53-32.07-.79-3.65-.59-6.7,3.33-8.17,1.74-.65,1.66-1.4,1.32-3-2.21-10.15-1.65-11.43,7.11-15.89,3-1.53,3-3.51,1.75-6.16-1.65-3.44-3.28-6.91-4.67-10.47-1.06-2.73-.15-4.49,3.08-4.73,2.13-.16,4.25-.91,6.37-.87,5.16.09,4.59-2.48,2.83-5.66-3-5.35-5.57-10.91-11-14.5-1.64-1.08-3.45-3.49-3.41-5.26.12-5.09-2.5-8.83-4.84-12.83a7.85,7.85,0,0,1-1.44-4.7c1.17-12.85-3.63-24.39-7.85-36.06a21.47,21.47,0,0,1-1.21-6.83c-.27-8.92,1.06-17.92-1.72-26.76-.86-2.74.37-5.87,2.17-8.4a80.91,80.91,0,0,0,5.14-7.31c2.87-5.19,1.91-7.39-3.63-9.34-6.7-2.35-7.83-3.9-7.91-10.85a27.17,27.17,0,0,1,.05-5.49c2.22-11.39-3.61-19.35-11.09-26.66-2.74-2.67-5.5-5.31-7-9,8.25-.65,15.5-.39,23.42,4.79,18.61,12.17,28.93,30.43,39.88,48.46a237.62,237.62,0,0,0,25.19,34.72c4.85,5.46,10.07,10.75,16.88,12.9,9.89,3.12,14.73,10.77,18.65,18.89a34.12,34.12,0,0,0,18.64,17.63c10.77,4.45,20.92,10.24,31.41,15.3,8,3.87,12,10.11,13.82,18.25,1.43,6.5,2.52,13.06,3.82,19.58,3.43,17.16,7,34.36,17.71,48.77,9.18,12.34,13.3,26.69,17.64,41,4.15,13.69,7.69,27.6,14.48,40.32,6.39,12,14.88,21.52,27.45,27.9,21.3,10.8,44,19,63.25,33.79a82,82,0,0,1,19.68,22.31c5,8.08,10.19,16,16.5,23.16a47.53,47.53,0,0,1,6.58,9.38,43.25,43.25,0,0,0,10.87,13.59c16.34,13.35,26.64,31.26,37.7,48.67,7.13,11.21,13.91,22.71,24.16,31.63C2581.57,1526.93,2584.77,1531.06,2588.28,1534.84Z" transform="translate(-0.91 -1.89)"/></g><g id="Group_5" data-name="Group 5"><g id="Layer_5_Layer_8_trees_Image" data-name="Layer 5 + Layer 8 + trees Image"><path class="cls-7" d="M3842,1426v736H2V1094c4.41-1.72,7.18-5.75,11.53-7.78,17.78-8.29,35.43-16.77,53.49-24.53,19.25-8.26,39-15.4,57.83-24.68,8.58-4.23,17.69-5.72,27.1-2.56,2,5.38.22,9-5,11.1a35.28,35.28,0,0,0-5.35,2.7c-3.53,2.21-9.59,2.65-9.64,7.54-.05,5.65,6.37,5.83,10.3,7.89,2.34,1.22,5.8,1.72,6,4.67.31,5.9,1.54,12.94-3.32,17-6.13,5.16-8.73,10.24-5.43,17.75a1.61,1.61,0,0,1-.09,1c-1.49,5.18.23,9,4.62,12,2.53,1.72,3.6,4.22,1.3,6.76-2.9,3.21-1.32,5.52.2,8.81,2.14,4.63,2.28,10,7,13.58,1.79,1.35,1.46,4.31,1.5,6.64.06,4,.21,8,0,12-.37,7.16.85,13.75,4.84,20,4.39,6.82,6.5,14.57,7.14,22.65a23.25,23.25,0,0,0,3.31,10.32c6.28,10.49,14.35,19.11,25,25.22,6.64,3.8,13,8,19.72,11.7,14.62,8.06,29.49,10.58,46,4.83,14.94-5.2,26.9-14.24,38.51-24.26,2.89-2.49,4.92-5.39,4.13-9.56-.87-4.62,1.21-7.8,5.35-9.57,4.92-2.09,6.18-5.45,4.59-10.45-.73-2.31-2.87-5.46.26-7.16s4.05,2.57,6.27,3.65c.4.2,1.12-.24,2.19-.51-.43-4.15-.88-8.38-1.32-12.62,2.59.57,5.22,1,7.76,1.73a145.15,145.15,0,0,0,39.44,5.81c34.31.33,68.64,1.88,102.9-1.69,9.33-1,18.92-1.75,27.34-5.43,28.92-12.64,59.75-21.37,85.52-40.66a22.86,22.86,0,0,1,10.87-4.7c11.61-1.51,23.27-1.44,34.93-.92a16,16,0,0,1,7.59,2.2c12.59,8.08,26.17,15.37,29.25,32.15.67,3.61,2.64,6.25,6.47,6.62,16.23,1.58,32.49,3.82,48.39-2.3,11.8-4.55,23.37-9.8,35.85-12.38,5.93-1.23,11.35-3.72,16.91-6,20.56-8.3,38.53-22.37,60.69-27-2.33,7.9-2.39,14.69,5.77,20.07,5.21,3.43,5.75,16.07,2.15,21.61-4,6.19-4.25,6.47,1.46,11.31,3.35,2.84,4,5.27.86,8.16-7.76,7.08-7.19,15-3,23.64,2.78,5.76,4.84,12,3.4,18.31-1,4.58.89,6.18,4.39,7.31,8.24,2.64,12.6,8.17,13.23,16.84.47,6.34,3.77,9.64,10.22,11.68,17.14,5.43,34.55,9.65,52,13.86a228.46,228.46,0,0,0,26.47,4.77c10.58,1.28,17.23-2.17,22.27-11.43,1.91-3.51,3.47-7.21,5.18-10.82,20.39,5.1,41.24,7.3,62.08,9.18,29.53,2.68,59.19,1.63,88.79,1.86a42.5,42.5,0,0,0,10.88-1c14.53-3.65,28.93-7.6,42.92-13.06,25.39-9.9,51-19.19,75.88-30.46,7.88-3.57,16.14-6.34,25.1-4.84a7.63,7.63,0,0,1-5.71,3.59c-7.14,1.13-11.85,5.91-16,11.15-6.22,7.79-4.18,13,5.57,14.34,4.59.61,9.31.28,14,.5,2.25.11,5.12-.38,6,2.35s-1.55,4.14-3,5.84c-11.24,12.68-11.23,12.74,4.92,19.73,5.66,2.45,6.93,4.85,5.37,11-.9,3.54-2.24,7-3.32,10.47-1.76,5.67-2.45,11.12,3.08,15.4a5.38,5.38,0,0,1,1.92,5.41c-1.08,5.78,1.72,9.24,6.25,12.41,4.69,3.28,4.29,5.41-1.16,7-3.73,1.09-7.09,1.85-7.55,6.53-.5,5.09.57,9.28,5.76,11.47,2.91,1.23,5.27,3.12,5.72,6.41,1.1,7.93,7,10.92,13.51,13a96.47,96.47,0,0,0,12.64,2.89c3.9.73,5.3,2.51,3.25,6.21-1.81,3.26-3.07,6.61-2.35,10.48,2.33,12.63,5.85,24.21,21,27,5.11.94,8.08,4.29,8.47,9.71a9.19,9.19,0,0,0,2.94,6.2c8.44,7.76,17.69,14.1,29.27,16.19,4.59.82,9.18,1.68,13.81,2.2,5.12.58,8.66,2.65,10.31,7.89,1.74,5.57,6,9.66,11.61,9.59,10.77-.13,14.56,6.06,16.32,15.07.38,2,1.15,3.86,1.37,5.83.66,5.82,3.6,10.16,8.85,12.4,5.75,2.45,9.08,6.37,10.19,12.49,1.18,6.54,5.76,9.47,11.92,10.22a68.47,68.47,0,0,0,20.9-.41,65,65,0,0,1,24.82.07c7.1,1.43,13.89,1,20.37-2.53a28.75,28.75,0,0,1,5.55-2.23c2.59-.78,4.14-.38,4.77,3,1.25,6.68,2.39,7.41,8.11,4.73a219.09,219.09,0,0,0,19.23-10.58c4.35-2.6,8.25-4.28,12.44.28,2,2.22,4.85,1.79,7.48.76a26.83,26.83,0,0,0,11.79-8.83c6.34-8.21,6.25-18,7.76-27.47,24.62.2,49.35,1.46,73.82-.91,27.4-2.67,54.38-8.74,81.29-14.72,9-2,13.57-7.76,16.83-16.27,8.65-22.62,20.73-43.18,40.57-58,11.69-8.77,22.94-18.56,36.44-24.25,17.68-7.45,35.4-15.36,54.82-17.58a118.35,118.35,0,0,0,20.39-4.57c15.15-4.54,30.71-5.74,46.41-5.33,10.11.27,19.94,1.83,27.35,9.83a25.13,25.13,0,0,1-3.35,10.39c-6.19,11.61-7.43,24.1-6.27,36.91,2.09,23,8.36,45.21,14.69,67.2,5.37,18.67,7.59,37.87,12.54,56.54a29.43,29.43,0,0,1,.42,6,81.57,81.57,0,0,1-5.16,34.28c-4,10.49-3.25,11.22,5.15,17.38a74.68,74.68,0,0,0,14,7.72c7,3.11,14.13,4.34,21.28,1,8.41-3.91,16.38-8.94,26.2-8.58a6.2,6.2,0,0,0,3.56-1.68c8.33-6.72,18.06-7.9,28.3-7.59,9,.27,18,.22,26.76-2.41,7.14-2.13,13.06-5.13,14-13.53.5-4.29,3.16-5.48,7.11-4.73a12,12,0,0,0,10.36-2.56c6.79-5.92,14.61-8.36,23.45-9.83,13.76-2.28,17.71-9.09,15.18-22.63-.24-1.31-.43-2.63-.65-4,8.94.79,17.87,1.85,26.83,2.33,30.93,1.66,61.89.93,92.84,1a49.14,49.14,0,0,0,7.89-1c23.92-3.83,44.87-14.74,64.1-28.68,20.51-14.88,42.06-28,63.68-41.11a51.74,51.74,0,0,1,8.12-3.79c28.52-11,55.36-25.89,84.24-36.23,12.39-4.44,23.73-12,35.29-18.55,5.76-3.26,11.14-7.27,15.17-12.78,3.53-4.82,7.33-9.46,10.85-14.3,9.39-12.92,21.17-24.1,29-38.11,6.07-10.93,13.92-20.22,22.29-29.28,10.65-11.52,24.35-17.22,39.3-19.93,11.47-2.07,23.18-2.12,34.84-1.28.69,3.94,1.69,7.84,2,11.8.34,4.6,2.79,7,6.66,9,10.8,5.75,13.31,13.2,8.77,24.82-1.08,2.77-3.11,5.38-2.36,8.5,1.66,6.86.37,13.13-2.81,19.29-1.88,3.65-.55,6.42,3.28,7.94,1.54.61,3.15,1.09,4.66,1.78,7.45,3.39,8.78,6.62,5.8,14.21-1.34,3.4-3.06,6.67-4.19,10.14-2.75,8.47-1.91,11.26,5.53,15.89,5.36,3.33,11.1,6,16.73,8.93,3.63,1.86,6.75,3.93,8.38,8,2.43,6.14,7.19,10.25,13,13.16,6.9,3.43,13.52,7.2,17.85,13.94,6.75,10.52,16.62,13.55,28.47,11.78,2-.29,4-.41,6-.73a7.8,7.8,0,0,1,6.54,1.61c9.11,7.41,19.05,12.84,30.77,15.36,14.55,3.13,28.67,8.33,44,4.45,6.62-1.67,13.25.27,19.32,3.35,11,5.56,16.68,3.92,23.77-7.07,3.33,0,6.65,0,10,0,19.66.13,39.43,1.71,58.94.06,33-2.78,63.23-15.07,92-31.18,15.39-8.63,29.48-19.4,45.5-27,11.42-5.44,21.65-4.49,31.88,2.79,8,5.69,14.28,13,20.65,20.22,12.58,14.35,27.31,24.93,46.5,29.19,18.12,4,36.31,4.16,54.63,3.77,5.41-.11,10.37-1.9,15.17-4.45,21.5-11.44,42.5-23.6,60.52-40.26,9.54-8.82,19.7-17.07,28.48-26.58,10.26-11.11,22.34-21.2,25.92-37.17.63-2.79,2.76-5.28,4.32-7.83,9.26-15.17,22.1-27.49,32.94-41.4a124.62,124.62,0,0,1,44.7-36c9-4.34,17.65-9.36,26.45-14.09,8.54-4.6,17.17-8.92,27.12-9.47,14,6,29.06,6.54,43.81,8.46,8.24,1.08,16.51,1.9,24.67,3.49,2.2.43,5,1.81,2.65,4.81-2.55,3.21-5.39,6-3.26,10.6a19.21,19.21,0,0,0,8.78,9.25,137.17,137.17,0,0,0,12.77,5.65c7.2,2.78,11.79,7,10.93,15.61-.82,8.28,3.91,13.81,10.66,17.77a43.47,43.47,0,0,0,7.24,3.32c6.25,2.28,10.13,6.19,10,13.27-.07,3.48,1.33,5.66,4.35,8.12,6.31,5.14,12.11,11,9.89,20.89-1.46,6.47,1.86,11.74,7.21,15.35a60.56,60.56,0,0,0,11.34,6.24C3807.8,1413,3824.92,1419.43,3842,1426Z" transform="translate(-0.91 -1.89)"/><path class="cls-8" d="M3629.76,1263.38c8.12-3.29,16.77-3.89,25.32-4.54a100.72,100.72,0,0,0,20.49-3.72c14.75-4.27,30.06-5.08,45.16-7,34-4.43,68.21-3.52,102.38-3.64,6.3,0,12.59-.28,18.89-.43v182c-17.08-6.57-34.2-13-51.21-19.79a60.56,60.56,0,0,1-11.34-6.24c-5.35-3.61-8.67-8.88-7.21-15.35,2.22-9.85-3.58-15.75-9.89-20.89-3-2.46-4.42-4.64-4.35-8.12.14-7.08-3.74-11-10-13.27a43.47,43.47,0,0,1-7.24-3.32c-6.75-4-11.48-9.49-10.66-17.77.86-8.65-3.73-12.83-10.93-15.61a137.17,137.17,0,0,1-12.77-5.65,19.21,19.21,0,0,1-8.78-9.25c-2.13-4.57.71-7.39,3.26-10.6,2.38-3-.45-4.38-2.65-4.81-8.16-1.59-16.43-2.41-24.67-3.49C3658.82,1269.92,3643.75,1269.36,3629.76,1263.38Z" transform="translate(-0.91 -1.89)"/><path class="cls-8" d="M1283.93,1232.49c18.79,2,28,15.34,35.12,30.49,8.61,18.4,17.1,36.81,28.13,54,13.76,21.39,30.75,40.2,47.51,59.11,15.88,17.91,33.21,34.47,47.27,54.06a117.84,117.84,0,0,0,52.48,41.33c27.6,11.31,56.34,18,85,25.32,13.86,3.56,28.39,2.69,42.64,3.48-1.51,9.45-1.42,19.26-7.76,27.47a26.83,26.83,0,0,1-11.79,8.83c-2.63,1-5.44,1.46-7.48-.76-4.19-4.56-8.09-2.88-12.44-.28a219.09,219.09,0,0,1-19.23,10.58c-5.72,2.68-6.86,2-8.11-4.73-.63-3.36-2.18-3.76-4.77-3a28.75,28.75,0,0,0-5.55,2.23c-6.48,3.54-13.27,4-20.37,2.53a65,65,0,0,0-24.82-.07,68.47,68.47,0,0,1-20.9.41c-6.16-.75-10.74-3.68-11.92-10.22-1.11-6.12-4.44-10-10.19-12.49-5.25-2.24-8.19-6.58-8.85-12.4-.22-2-1-3.87-1.37-5.83-1.76-9-5.55-15.2-16.32-15.07-5.61.07-9.87-4-11.61-9.59-1.65-5.24-5.19-7.31-10.31-7.89-4.63-.52-9.22-1.38-13.81-2.2-11.58-2.09-20.83-8.43-29.27-16.19a9.19,9.19,0,0,1-2.94-6.2c-.39-5.42-3.36-8.77-8.47-9.71-15.14-2.78-18.66-14.36-21-27-.72-3.87.54-7.22,2.35-10.48,2.05-3.7.65-5.48-3.25-6.21a96.47,96.47,0,0,1-12.64-2.89c-6.5-2.13-12.41-5.12-13.51-13-.45-3.29-2.81-5.18-5.72-6.41-5.19-2.19-6.26-6.38-5.76-11.47.46-4.68,3.82-5.44,7.55-6.53,5.45-1.61,5.85-3.74,1.16-7-4.53-3.17-7.33-6.63-6.25-12.41a5.38,5.38,0,0,0-1.92-5.41c-5.53-4.28-4.84-9.73-3.08-15.4,1.08-3.5,2.42-6.93,3.32-10.47,1.56-6.1.29-8.5-5.37-11-16.15-7-16.16-7-4.92-19.73,1.5-1.7,3.94-3.24,3-5.84s-3.8-2.24-6-2.35c-4.65-.22-9.37.11-14-.5-9.75-1.3-11.79-6.55-5.57-14.34,4.18-5.24,8.89-10,16-11.15A7.63,7.63,0,0,0,1283.93,1232.49Z" transform="translate(-0.91 -1.89)"/><path class="cls-8" d="M2020,1368.39c6.69,3.6,11,9.61,15.29,15.51,19.22,26.25,42.63,48.61,66.68,70.17,10.29,9.24,23.1,15.71,34.89,23.25,5.35,3.42,10.63,6.81,15.11,11.39a52.23,52.23,0,0,0,7,5.65c15.76,11.36,33.46,19.25,50.6,28.13,5.65,2.93,11.91,4.2,18,5.81.22,1.32.41,2.64.65,4,2.53,13.54-1.42,20.35-15.18,22.63-8.84,1.47-16.66,3.91-23.45,9.83a12,12,0,0,1-10.36,2.56c-4-.75-6.61.44-7.11,4.73-1,8.4-6.9,11.4-14,13.53-8.8,2.63-17.77,2.68-26.76,2.41-10.24-.31-20,.87-28.3,7.59a6.2,6.2,0,0,1-3.56,1.68c-9.82-.36-17.79,4.67-26.2,8.58-7.15,3.33-14.32,2.1-21.28-1a74.68,74.68,0,0,1-14-7.72c-8.4-6.16-9.19-6.89-5.15-17.38a81.57,81.57,0,0,0,5.16-34.28,29.43,29.43,0,0,0-.42-6c-5-18.67-7.17-37.87-12.54-56.54-6.33-22-12.6-44.21-14.69-67.2-1.16-12.81.08-25.3,6.27-36.91A25.13,25.13,0,0,0,2020,1368.39Z" transform="translate(-0.91 -1.89)"/><path class="cls-8" d="M152,1034.45c15.24,2.74,26.61,11.38,35.39,23.67,10.25,14.35,18.57,29.9,27.28,45.19a104.18,104.18,0,0,0,11.07,16.54,185.39,185.39,0,0,1,18.77,25.72c4.88,8.19,12.1,13.83,19.9,19.16,15.33,10.48,32.26,16.87,50.1,21.29a47.75,47.75,0,0,1,5.55,2.09c.44,4.24.89,8.47,1.32,12.62-1.07.27-1.79.71-2.19.51-2.22-1.08-3.06-5.39-6.27-3.65s-1,4.85-.26,7.16c1.59,5,.33,8.36-4.59,10.45-4.14,1.77-6.22,5-5.35,9.57.79,4.17-1.24,7.07-4.13,9.56-11.61,10-23.57,19.06-38.51,24.26-16.54,5.75-31.41,3.23-46-4.83-6.69-3.69-13.08-7.9-19.72-11.7-10.69-6.11-18.76-14.73-25-25.22a23.25,23.25,0,0,1-3.31-10.32c-.64-8.08-2.75-15.83-7.14-22.65-4-6.21-5.21-12.8-4.84-20,.2-4,.05-8,0-12,0-2.33.29-5.29-1.5-6.64-4.69-3.53-4.83-9-7-13.58-1.52-3.29-3.1-5.6-.2-8.81,2.3-2.54,1.23-5-1.3-6.76-4.39-3-6.11-6.85-4.62-12a1.61,1.61,0,0,0,.09-1c-3.3-7.51-.7-12.59,5.43-17.75,4.86-4.08,3.63-11.12,3.32-17-.16-2.95-3.62-3.45-6-4.67-3.93-2.06-10.35-2.24-10.3-7.89,0-4.89,6.11-5.33,9.64-7.54a35.28,35.28,0,0,1,5.35-2.7C152.17,1043.43,154,1039.83,152,1034.45Z" transform="translate(-0.91 -1.89)"/><path class="cls-8" d="M2761.93,1286.64c13.15-2.12,24.23,2.86,34.22,10.57,14.71,11.34,26.1,25.66,34.8,42,14.26,26.72,28.87,53.35,45.56,78.49,14.67,22.09,33.35,40.86,59.81,50.61,22.07,8.14,44.23,14.08,67.76,14.6-7.09,11-12.79,12.63-23.77,7.07-6.07-3.08-12.7-5-19.32-3.35-15.34,3.88-29.46-1.32-44-4.45-11.72-2.52-21.66-8-30.77-15.36a7.8,7.8,0,0,0-6.54-1.61c-2,.32-4,.44-6,.73-11.85,1.77-21.72-1.26-28.47-11.78-4.33-6.74-10.95-10.51-17.85-13.94-5.85-2.91-10.61-7-13-13.16-1.63-4.12-4.75-6.19-8.38-8-5.63-2.88-11.37-5.6-16.73-8.93-7.44-4.63-8.28-7.42-5.53-15.89,1.13-3.47,2.85-6.74,4.19-10.14,3-7.59,1.65-10.82-5.8-14.21-1.51-.69-3.12-1.17-4.66-1.78-3.83-1.52-5.16-4.29-3.28-7.94,3.18-6.16,4.47-12.43,2.81-19.29-.75-3.12,1.28-5.73,2.36-8.5,4.54-11.62,2-19.07-8.77-24.82-3.87-2-6.32-4.42-6.66-9C2763.62,1294.48,2762.62,1290.58,2761.93,1286.64Z" transform="translate(-0.91 -1.89)"/><path class="cls-8" d="M833.92,1135.52c6.45-5,12.91-2.82,18.49,1,20.57,14.12,37.75,31.58,50.05,53.46,11.77,20.93,24.07,41.39,40.79,59,7.52,7.9,15.35,14.61,25.87,17.91a93.22,93.22,0,0,1,9.16,3.94c-1.71,3.61-3.27,7.31-5.18,10.82-5,9.26-11.69,12.71-22.27,11.43a228.46,228.46,0,0,1-26.47-4.77c-17.46-4.21-34.87-8.43-52-13.86-6.45-2-9.75-5.34-10.22-11.68-.63-8.67-5-14.2-13.23-16.84-3.5-1.13-5.44-2.73-4.39-7.31,1.44-6.33-.62-12.55-3.4-18.31-4.14-8.6-4.71-16.56,3-23.64,3.15-2.89,2.49-5.32-.86-8.16-5.71-4.84-5.48-5.12-1.46-11.31,3.6-5.54,3.06-18.18-2.15-21.61C831.53,1150.21,831.59,1143.42,833.92,1135.52Z" transform="translate(-0.91 -1.89)"/></g></g><g id="Group_4" data-name="Group 4"><g id="Layer_4_Image" data-name="Layer 4 Image"><path class="cls-9" d="M3841,1383q0,386.71.09,773.43c0,3.62-.61,4.67-4.52,4.67Q1921,2161,5.41,2161.11c-3.95,0-4.49-1.12-4.49-4.7Q1.06,1658.2,1,1160c1.59,1.24,1.55,3.5,3.39,4.74,8.16,5.51,16.35,10.85,26.08,13.35A57.55,57.55,0,0,1,40.71,1182a127.87,127.87,0,0,0,54.46,12.85c24,.15,48,0,72,.22a100.17,100.17,0,0,0,42.18-8.63c14.48-6.45,28.79-12.79,45.31-11.28,7.21.65,13.61,2.32,19.32,6.92,8.93,7.21,16.71,15.27,21,26.15,1.23,3.09,3.39,4.47,6.73,5,8.12,1.35,16.3.88,24.43,1.34,10.35.58,20.35,1.58,29.25,8.14,6.18,4.56,14.06,6.27,21.54,7.35,13.85,2,27.78,2.67,41.82.6,8-1.18,16.26-2,23.72,3,1.42.94,3.47,1.05,5.26,1.34,8.09,1.31,16.29.89,24.43,1.36,5.06.29,8.92-1.58,12.41-5.14,9.53-9.74,15.06-22,20.63-34,3-6.45,4.78-7.5,11.52-3.41a12.15,12.15,0,0,1,3.86,3.79c6,9,11.11,18.35,13.65,29.15,3.35,14.21,12.28,22.21,25,23.25,19.27,1.58,38.57,2.88,57.85.28,11.61-1.57,21.86.86,30,9.72,9.77,10.67,20,20.91,27.24,33.71,5.27,9.29,13.64,14.68,24.7,15.51,34.61,2.63,69.29,1.51,103.94,1.78a24.3,24.3,0,0,0,4.93-.63,287.7,287.7,0,0,0,48.81-14.16c19.2-7.53,39.67-11.89,58.13-21.09,18.06-9,37.15-14.52,56.32-19.89,10.94-3.06,19.35-9.26,27.27-16.74,2.41-2.29,4.62-4.81,7.55-6.51,14.29-8.31,27.4-18.31,40.47-28.36a17.09,17.09,0,0,1,5.65-3.08c2.53-.73,4.17-.1,5.14,2.41,4.09,10.52,8.87,20.74,11,32,2.3,12.3,1.79,25.26,5.39,37,5.49,17.85,7.26,37,17.38,53.36,5.3,8.57,10.84,16.79,20.44,21.11a73.18,73.18,0,0,1,13.55,8.38,91.33,91.33,0,0,0,20.49,11.25,141.69,141.69,0,0,0,56,10.52c27-.4,54.26,2.87,80.83-5.29a39.45,39.45,0,0,0,12.25-6.4c3.33-2.48,6.43-5.32,9.91-7.56,11.93-7.65,14.89-3.54,20.45,6.48a7.15,7.15,0,0,1,.56,1.91,74.36,74.36,0,0,0,8.75,20.58c2.43,4.16,5.43,8.29,6.59,12.83,4.21,16.45,16.33,28.13,25,41.74,7,11,18.58,18.89,30.32,24.56,10.74,5.18,19.93,12,28.68,19.62,8.08,7,17.17,10.33,27.65,11.17,16.65,1.32,33.31.74,50,.93a33.15,33.15,0,0,0,4.94-.6c26.43-3.71,47.35-19.45,69.48-32.35,8.42-4.91,16.19-11.09,24.62-16.15,6.42-3.86,12.12-8.83,18.92-12.08,2.88-1.39,6.19-3.1,8.71-.08,5.65,6.78,12,13.69,14.21,22.14,4.46,17.39,12.25,33.75,15,51.7,1.43,9.44,2.9,19.13,7.5,27.84,1.25,2.37,2.54,4.81,5.43,5.49,10.43,2.45,21.09,2.65,31-1a126,126,0,0,0,32.09-17.06c5.57-4.18,10.63-3.56,15.51,1.28a68.92,68.92,0,0,1,9.45,11.61c.86,1.34,1.5,3,3.48,3.28,10.38,1.42,20.87,3.4,31.19.61,14-3.8,27.14-9.93,39.63-17.42,7.56-4.53,14.93-9.45,23.16-12.75,8.79-3.52,17.7-4.45,25.36,2.34a51.25,51.25,0,0,1,13.23,17.4c5.56,12.61,13.35,23.77,21.16,35a23.08,23.08,0,0,0,4.46,4.64c8.73,7.11,18.69,12,28.79,16.76,5.59,2.64,10.9,5.7,17.14,6.47,15.25,1.89,30.55,1.9,45.89,1.39,8.22-.27,15.15-3.45,21.61-8a34.48,34.48,0,0,1,8.85-4.44c8.93-3.11,18.15-5.54,26.2-10.82,2.27-1.49,4.93-1.79,7.6-2.17,12.42-1.79,22.31,2.5,30.94,11.41,18,18.62,40.82,26.91,66.16,28.74,23.79,1.72,47.64.75,71.47.86,8.07,0,15.33-2.85,21.79-7.61,19.3-14.2,38.94-28,57.59-43,5-4.07,10.61-7.52,14.72-12.69,13.68-17.2,31.08-29.74,49.8-40.94,15.34-9.18,30.61-18.56,42.06-33.07a72.63,72.63,0,0,1,19.83-17.4c25.47-15,49.53-31.92,71.35-51.92a29.35,29.35,0,0,1,11.11-6.5c17.18-5.45,34.66-9.57,52.67-10.78,12-.8,22.38-3.93,30-14.07,4.07-5.4,7.31-11.44,12.76-15.88s12.55-4.91,18.09-.56c4.82,3.79,5.82,9.22,6.67,14.56a152.65,152.65,0,0,1,1.83,33.4c-1.12,18.19,8,32.86,15.3,48.21,1.27,2.67,3.66,4.65,5,7.4a119,119,0,0,0,13.94,21.86c5.7,7.11,12.41,12.82,21.33,15.82,8,2.69,15.92,5.88,23.69,9.26,13.86,6,27.45,12.6,40.91,19.53,12.3,6.32,24.74,12.22,36,20.37a14.87,14.87,0,0,0,4.77,2.67c15.95,3.93,32.28,7.55,48.05.81,19.38-8.27,39.43-15,58-25.07,5.73-3.09,12-3.77,18.41-3.68,2.32,0,3.84,1,5.45,2.78,7.17,7.72,9.58,17.29,11.26,27.23a158.16,158.16,0,0,0,7.16,28.52c1.35,3.68,3.13,7.24,7.88,7.15,3.65-.07,7.29,0,10.92-1,17.36-4.43,32.69-13,47.22-23.15,6-4.2,11.87-8.44,18.55-11.65,15.2-7.31,29-7.38,41.09,5.91a4.9,4.9,0,0,0,1.95,1.53c11.21,3.12,22.6,6.57,33.68.11a152.43,152.43,0,0,0,17.54-12.38c20.13-15.94,42.83-28,63.86-42.56,2.31-1.6,5.27-2.31,7.43-4,12.5-10,26.89-17.22,39.7-26.76a9.72,9.72,0,0,1,5.21-1.49c14.12-1.13,31.27,9.71,36.4,22.9a159,159,0,0,0,6.58,15.09c7,13.67,12.44,28.22,25.63,38.06,5.38,4,10.11,7.41,17,7.6,19.29.5,38.5,2,57.37-4.52,10.58-3.65,20.54-8.62,30.93-12.6a76.46,76.46,0,0,0,25.13-15.93,59.24,59.24,0,0,1,14.43-9.76c8.27-4.11,23.08-1.88,28.38,8.22,4.41,8.39,9,16.65,13.06,25.25,5.08,10.87,20.44,17.37,31.7,13.06,10-3.81,19.51-8.56,27.79-15.5a206.76,206.76,0,0,1,21.36-15.62,746.73,746.73,0,0,0,67.81-48.5c16.81-13.62,33.8-27.06,50.35-41,2.39-2,5.38-3.25,7.12-6.15a29.09,29.09,0,0,1,9.51-9.41c10.45-6.69,20.25-14.15,27.32-24.54,3.36-4.93,8-7.35,13.58-8.37,6.87-1.27,13.86-1.92,20.67-3.42a111.08,111.08,0,0,1,21.23-2.87C3822.7,1383.72,3831.85,1383.32,3841,1383Z" transform="translate(-0.91 -1.89)"/></g></g><g id="Group_3" data-name="Group 3"><g id="Layer_3_Image" data-name="Layer 3 Image"><path class="cls-10" d="M3841,1498q0,329.22.09,658.44c0,3.64-.64,4.66-4.53,4.66Q1921,2161,5.42,2161.1c-3.93,0-4.51-1.08-4.5-4.68Q1.06,1731.71,1,1307c4.44-5.15,8.32-10.94,13.41-15.34,15-12.94,30.28-25.61,45.87-37.84,11.84-9.3,24.93-16.81,39.67-20.46,15.82-3.92,31.63-3.06,47.27,1.91,11.24,3.57,22.73,6.34,34,9.85,11.86,3.68,24.19,4.35,36.29,6.52,35.8,6.41,71.78,10.29,108.21,10.56,33.16.25,66.32.64,99.48.69,9,0,14.44,3.74,17.44,12.09,2.32,6.45,5.79,12.33,8.63,18.5,4.6,10,12.52,14.82,22.76,16.36,15.81,2.37,31.42,5.72,47,9.17,23.41,5.17,47.43,6.78,70.85,12,6,1.32,10.89,3.36,14.85,8.12a17.49,17.49,0,0,0,12.42,6.68c11.3.74,22.61,1.91,33.92,2,44.66.32,89.32.29,134,.39,6.65,0,8.33,1.41,9.86,8,2.18,9.33,2.07,18.85,2.36,28.33.48,16,1.06,32.11,8.62,46.72,5.94,11.48,13.29,21.85,26.39,26.4,9,3.12,17.83,6.44,26.68,9.82,9.42,3.59,19.3,5.17,29.17,6.41,22.68,2.86,45.54,4.45,68.33,3.22,15.3-.82,27.58,3.07,37.57,14.53,2.41,2.76,5.67,3.77,9.24,4.36,13.53,2.23,27.22,2.06,40.82,3.11,14,1.09,27-2.6,40.05-6.63,20.07-6.2,38.89-15.56,58.58-22.69,13.27-4.8,26.28-10.7,40.51-12.17,12.42-1.29,24.94-1.27,37.42-1.69,31-1,62.26,2.59,93.06-4.73,15.15-3.6,30.78-4.87,44.73-13,7.13-4.16,15.36-6.38,23.62-7.72,4.5-.73,9.58-.91,12.56,2.82,9.64,12.12,18.89,24.66,24.27,39.35,14.06,38.33,32.22,74.52,56,107.69,10.17,14.16,21.61,27.2,40.08,31,3.06.62,5.9,2.27,8.94,3.1,10.62,2.89,21.17,4.64,32.45,3.19,14.6-1.88,28-6.74,41.36-12.41,34.57-14.67,71.1-23.13,107.08-33.32,17.59-5,32.78-.17,45.5,11.9a191.38,191.38,0,0,1,25.54,30.66c4.55,6.6,9.53,12.88,16.29,17.41,18.61,12.5,39.9,19.54,60.88,25.74,20.19,6,41.85,5.11,62.91,1.08,5.71-1.09,12.16-.49,17-3.62,13.58-8.81,29.24-13.78,42.28-23.5,2.1-1.57,4.45-3.54,7.13-3.28,8.92.87,17.75,1.64,25.25,7.88,8.75,7.3,16.26,15.76,24.17,23.85a19.68,19.68,0,0,0,5.09,3.91c10.6,5.5,20,1.93,28.93-3.91,22.54-14.83,38.6-36.55,57.72-55,20.88-20.17,37.75-44,56.55-66,4.63-5.43,9-11.18,15.44-14.72,5.73-3.13,10.71-7.3,15.85-11.28,4.34-3.36,9.07-6.36,14.41-7.75,10.66-2.77,21.65-3.59,32.52-5.19,10.22-1.51,16.84,2.87,21.79,11.09,1.72,2.85,3.35,5.77,5.18,8.54,9.55,14.44,17.76,29.77,28.66,43.29,3.91,4.86,7.16,10.85,13.09,13.43a170.29,170.29,0,0,0,59.95,13.77c28.32,1.43,56.65.72,85,1.42,9.87.24,20.39-.83,29.36,4.12,14.55,8.05,30.24,9.84,46.29,10.33,34,1,68,.92,102,.88a26.54,26.54,0,0,0,4.44-.46,213,213,0,0,0,41.69-11.78c15.12-6,29.5-13.91,45.75-16.93,11.64-2.17,23.17-4,35.13-2.55,11.23,1.37,22.4,1.29,33.66-1.68a98,98,0,0,0,26.14-10.75c3.63-2.19,7.64-3.81,11.3-1.61,9,5.41,19.22,9.56,23.24,20.7,6,16.72,16.07,31,27.91,44,7.05,7.72,15.63,13.38,26.65,14.17,14.13,1,28.28,1.59,42.44,1.6,6.79,0,13.82.57,20.33-1.61a544,544,0,0,0,57.56-22.51c15.66-7.31,30.72-16.83,48.79-18.09,7.26-.51,13.64.27,19.6,5.06a122.48,122.48,0,0,1,15.77,16c5.74,6.67,11.29,13.44,20.18,16.45,8.64,2.92,17.82,5.55,26.35,3.44a136,136,0,0,0,31.89-12.69c17.14-9.27,32.56-21.39,50.23-29.74,7.12-3.36,14.38-6.09,22.29-6.8,5.13-.45,10.36-.47,15.39-1.45,24.33-4.73,46.39-14.8,66.67-28.94,11.44-8,23.65-13.42,38.09-12.68,7.64.39,15.33.06,23-.21,3.63-.12,7.13.32,10,2.34,8,5.58,16.46,10.61,22.42,18.8,9.24,12.72,16.21,26.71,23.82,40.38a118.78,118.78,0,0,0,22.83,28.89c3,2.81,7.26,5.19,11.73,2.75,7.76-4.23,15.16-8.95,20.59-16.26,11.4-15.37,21.81-31.53,34.66-45.74,14.75-16.29,27.25-33.79,35.67-54.28,3.05-7.43,9.64-12.52,17-16.31,7.89-4.07,16.42-4.1,24.88-4.13q69.75-.27,139.49-.24a39.07,39.07,0,0,0,8.42-.79C3811.84,1499.94,3826.24,1497.38,3841,1498Z" transform="translate(-0.91 -1.89)"/></g></g><g id="Group_2" data-name="Group 2"><g id="Layer_2_Image" data-name="Layer 2 Image"><path class="cls-11" d="M3841,1619q0,268.73.09,537.45c0,3.65-.66,4.65-4.54,4.65Q1921,2161,5.43,2161.1c-3.92,0-4.52-1.06-4.52-4.67Q1.06,1794.72,1,1433c12.91-17.17,30.73-29.08,46.42-43.27,2.21-2,4.42-4.19,7-5.55,14.7-7.73,29.53-15.23,44.31-22.8,9.48-4.85,20-7.52,29.24-12.57s17.22-12.1,28-13.81h34c3,2.38,7.19.51,10.08,2.8,5.34,4.25,11.33,8,15.6,13.22,12.53,15.21,27.79,27.29,43.29,39.07,10.37,7.87,21.87,13.61,35,16.21,17,3.37,34.17,2.54,51.29,3,15.45.39,30.94,1.35,46.12-3.22,6.18-1.86,12.74-2.45,19.05-4,7.95-1.9,11.23,2.57,13.14,7.93,2.45,6.9,5.61,13.64,7.14,20.73,2.54,11.71,9.59,15.41,20.89,15.5,9.89.08,19.67,4.24,26,11.29a236.52,236.52,0,0,1,33.26,47.86c4.67,8.94,11.16,12.82,20.68,13.79,19.78,2,39.6,1.83,59.43,1.94,7.22,0,12.68,2.88,16.46,9,2.87,4.64,5.63,9.34,8.53,14,1.61,2.55,3.47,5.19,6.59,5.74,7.14,1.26,14.32,2.82,21.53,3.06,32.31,1.1,64.65,1.06,97,1.32a116.89,116.89,0,0,0,37.68-5.79c9.38-3.08,14.21-.41,19.21,8.7,8.64,15.74,14.38,32.86,22.24,49,5.11,10.47,11.37,20.37,14.85,31.6.73,2.38,2.36,4.74,4.42,5,6,.76,11.73,3.43,18,1.58,8-2.37,16.67-2.23,24.27-6.39,13.81-7.57,27.57-15.27,41.63-22.37,5.9-3,12.49-5.81,19.2-4.91a40.88,40.88,0,0,1,28.87,17.21,103.19,103.19,0,0,0,9.82,11.86c14.32,14.85,30.3,27.87,46.07,41.11a25.41,25.41,0,0,0,21.68,5.41c11.21-2.15,21.85-6.52,32.08-11.69,11.1-5.62,21-13.43,33.31-16.86A318.52,318.52,0,0,1,1169,1647.2c9.75-1,19.12-.42,27.87,5.7,14,9.82,30.37,11.82,47.15,12.26,29.33.77,58.66.62,88,.85,6.29,0,12.87-.3,18.83,1.32,14.23,3.87,28.21,8.73,42.24,13.35,7.46,2.46,14,7.66,22,8.24a429.39,429.39,0,0,0,58.94,0,12.49,12.49,0,0,0,3.35-.74c10.51-3.72,20.74-8,30.9-12.68,11.83-5.4,20-8.44,31.3,4.49,6.25,7.15,13,13.54,22.93,15.38,5.67,1,11.29,2.34,17.06,2.56,8.4.31,11.57,2.46,13.86,10.4,1.66,5.72,4.19,11.07,6.31,16.6,3,7.82,5,8.35,11.38,2.77.38-.32.7-.71,1.06-1.06,4.09-4,9.32-3.81,12.34,1a8.63,8.63,0,0,0,5.84,4.08c5.5,1.13,11,1.75,16.71.69s11.24.54,14.54,6.07a5,5,0,0,0,3.76,2.66c8.39,1.71,16.9,1.09,25.32,1.19,7.2.09,12.49,3.59,16.83,8.16a121.26,121.26,0,0,1,17,22c4,6.9,10.6,8.55,17.43,8.26,8-.34,15.59-2.79,23.21-5.57,14.64-5.36,29.29-7.11,42.13,5a61.4,61.4,0,0,0,9.63,7.84c12.53,7.79,26.14,13.11,39.94,18.1,11.11,4,22.85,4.58,34.26,6.93a156.9,156.9,0,0,0,27,3.19c4.15.12,8.48-.18,12.39.9,14.68,4,30.06,5.55,44.12,11.89a10.72,10.72,0,0,0,2.82.87,188.73,188.73,0,0,0,34.25,2c3-.12,6.29.15,8.66-1.64,12.15-9.16,23.6-19,31-32.76,2.14-4,5.84-5,10.09-5.67,11.33-1.71,22.54.46,33.8.58,18,.18,36,1.59,53.91-.55,10.4-1.25,19.17,1.25,26.45,9a18.32,18.32,0,0,0,6.18,4,121.5,121.5,0,0,0,52.61,9.28c8.7-.35,17.57.65,25.24-5.07,3-2.26,6.54-3.92,9.74-6,10.76-7,20.92-14.77,32.41-20.69,8.46-4.34,17.34-7.52,26-11.38,12.9-5.78,26.75-8.94,40.81-8.25s27.91.76,41.83,1.56c10.9.63,20.16-2.55,28.7-8.83a57.35,57.35,0,0,0,9.15-7.72c7.45-8.31,14.1-16.78,25.8-21.26,22.18-8.5,43.42-19.53,64.74-30.13,5.47-2.71,9.54-1.94,14,.9a30.91,30.91,0,0,1,5,4.06c7.24,7.13,14.87,13.94,21.49,21.62,8.35,9.69,19.25,13.13,31.12,13.84,18.09,1.09,36.18,2.35,54.29-.74a146.36,146.36,0,0,0,46.65-16.74c9.33-5.16,16.84-13,26.11-18.12,10.23-5.67,20.94-9.87,32.22-2.27a70.88,70.88,0,0,1,7.36,5.81c7.51,6.63,13,15.07,19.88,22.29,4.74,5,10.1,8.64,17.05,10.18,7.36,1.63,14.84,1.31,22.22,2.29a33.52,33.52,0,0,0,14.75-.82c8-2.53,15.23-7,22.06-11.5,10.71-7.14,20.43-15.73,30.83-23.35,3.95-2.9,7.42-6.59,12.52-7.91,8.38-2.17,15.44,1.16,22.58,4.68,12,5.93,20.44,16.27,30.09,25,11.52,10.44,24.94,16.48,39.87,19.2,11.8,2.16,23.91,1,35.85,1.78,7.29.49,14.28-.09,21.22-3.05,13-5.55,27-9,39-16.95a64.62,64.62,0,0,1,31.4-10.87c7.32-.52,14.63-.37,21.92-.86,18.27-1.23,34.58,2.88,48.21,15.9,6.64,6.34,13.36,13,23.39,13.75,5.28.42,10.55,1.24,15.83,1.36,43,1,85.92,2.09,128.87,0,18.47-.88,36.94-1.08,55.42-1.13,6.58,0,12.72-1.08,18.69-4.59a134.47,134.47,0,0,0,40.95-37.26c4.05-5.56,8.5-8.35,15.19-9.11,11.77-1.35,23.57-.81,35.34-1.51,6-.36,12.15-1,18,0,18.73,3.24,37.6,3.81,56.52,4,4.13,0,8.23.34,12.41-.58,14.17-3.13,25.41-11.43,35.39-21.11,6-5.79,12.15-8.75,20.14-8.52a98.11,98.11,0,0,0,41.92-8.08c6-2.57,12.83-3.21,18-7.23q14.49-11.17,28.3-23.21a36.32,36.32,0,0,1,13.93-7.62c15.88-4.69,32.19-4.33,48.49-4.56C3836.62,1615.43,3839.19,1616.07,3841,1619Z" transform="translate(-0.91 -1.89)"/></g></g><g id="Group_1" data-name="Group 1"><g id="Layer_1_Image" data-name="Layer 1 Image"><path class="cls-12" d="M245,1538.77a99.73,99.73,0,0,1,29.79,27.46c3,4.22,5.08,8.22,5.31,13.44.15,3.57,4.1,5,5.87,7.77a279,279,0,0,1,13.8,24.71,92.15,92.15,0,0,0,10.69,16.09c3.14,3.93,7,5.39,11.61,5.72,6.32.45,12.65.68,19,1a111.68,111.68,0,0,0,33.5-3.14c10.18-2.58,19.53-.54,24.88,9.42,3.22,6,8.88,5.37,13.77,7.25,10.3,4,20.36,8.57,30.72,12.35,15.5,5.64,31.22,10.69,46.76,16.21,7.1,2.51,11.92,7.46,13.47,15,2.18,10.67,5.57,20.6,16.1,26,6,3.06,12.61,4.17,19.14,4.75,12.26,1.1,24.6,1.32,36.88,2.19,12.68.89,25.41,1.85,37.19,7.32,4.77,2.21,8.45,6.07,9.31,11.05,1.7,9.8,9.65,15.44,14.26,23.26,1.49,2.52,5.1,1.8,7.76,2.29a94.76,94.76,0,0,0,16.42,1.11c7.5.06,15,0,22.48.71,14.57,1.39,27.7-3.83,41-8.35,5.15-1.75,9.73-1.89,14.82.42,6.28,2.83,13.32,2.52,20.06,3,11.15.87,22.23-.43,33.2-2.51,6.24-1.19,12.68-1.72,16.76,4.08a39.3,39.3,0,0,1,6.4,15.49c1.46,8,2.77,9.36,11.16,10.08q22.65,2,45.4,2c12.3,0,16.14,2.54,20.42,14,1.49,4,2.31,8.26,3.56,12.37,2.71,9,7.82,17.21,7.32,27.14-.2,3.93.76,7.93,1.23,11.9.64,5.39,3.42,7.62,9.08,7.21,12.36-.89,24.5,1.74,36.71,3.1,5,.57,8.55,3.86,11.73,7.09,5.25,5.33,9.81,11.38,12.26,18.6,2.66,7.85,7.83,12.64,16,13.8,8.78,1.25,16.05,6.22,24.05,9.38,17.09,6.75,34.38,12.25,53.19,11.56,5.82-.21,10.25-1.1,13.11-6.46,1.5-2.82,3-3.51,5.93-.86,3.56,3.19,8.31,2.65,12.74,1.45a9,9,0,0,0,3.1-1.6c9.42-7.48,20.25-9.11,31.86-8,4.1.38,8.5-1,10.58,4.58.88,2.38,4.21,2.29,6.66,2.71a396.76,396.76,0,0,0,68.12,5.69,65.43,65.43,0,0,1,11.4,1.12c7.75,1.35,13.6,5.3,17.44,12,2.08,3.64,5,4.85,8.9,5.25,12.3,1.27,24.64,1,37,1.15,3.17.06,5.83.53,7.9,3.22s5.18,3.74,8.8,3.65c9.11-.24,18.22-.21,27.5-2.5-4.44,9.23-4.23,10.33,6,10.85,15,.77,30,.5,45,.53,17.5,0,35,0,52.48,1,6.16.34,11.45,1.66,13.6,8.56,1.18,3.78,5,4.49,8.28,5.64,13,4.51,26.36,5,39.9,4.88,5.78-.06,11.63-.38,17.82.93-5.67,14.67-14.37,27.74-18.81,42.93,13.24-4.06,26.32-8.17,39.46-12.09,25.81-7.72,51.62-15.68,78.62-18,13-1.12,26,0,38,5.78,3.85,1.85,6.27,5.41,9.44,8.08a10.39,10.39,0,0,0,7.19,2.6c17.66.09,35.33,0,52.94,1.69,6,.56,11.36,2.23,16,6.18,2,1.73,4.26,3.22,6.23,5,12.28,11.08,25.8,10,39.48,3.58a187.74,187.74,0,0,0,27-16.08c6.6-4.57,6.93-4.49,9.73,2.73a127,127,0,0,0,9.13,18.81c1.68,2.84,3.17,3.17,5.93,1.36a96.73,96.73,0,0,1,33.35-14.13c14.63-3,29.46-3.18,42.57,6.44,4.29,3.16,9.11,1.32,13.37-.23a246.33,246.33,0,0,0,23.93-9.91c12.16-6,25.13-7.51,38.29-7.75,8.68-.15,16.4-1.45,22.39-8.52,2-2.34,5-3.81,7.6-5.64,3.6-2.54,7.38-3.73,11.64-1.51,1.86,1,3.93.53,5.91.54,38.49.24,77-.51,115.48.91,8.24.31,16.65.22,24.41,4.09a7.91,7.91,0,0,1,4.41,4.88c3.06,8.82,4.4,9.52,13.68,9.79,15.31.44,30.66-.22,45.93,1.48a15.44,15.44,0,0,1,8.23,3.1c5.08,4,7.92,3.89,12.78-.38,4.39-3.86,8.91-6.92,15.19-5.71,3.06.59,6.2.4,7.16,4.63.55,2.46,4,1.15,5.74,3.08,3,3.29,6.67,5.91,10,8.74,2-1.2,1.9-3.21,2.06-4.64.52-4.81,3.43-5.86,7.17-4.57,16.8,5.82,32.1.73,47.24-6,6.67-3,13.45-5.75,20-8.89,4.57-2.17,9.21-4,14.28-3.88,13.1.35,25.69-2.46,38.4-5.18,14.94-3.2,30.24-.93,45.37-1.55a84,84,0,0,1,11-.08c15.71,1.42,28.7-5.45,41.26-13.44,11.21-7.14,22.08-14.85,35.14-18.47a23.3,23.3,0,0,1,7.39-.86c17.46.75,34-3.21,50.06-9.63,17.13-6.83,34.31-13.43,52.11-18.46,14.3-4,28.44-1.5,42.66-1.21,7.31.16,14.47,1.1,21.41,4.08,4.92,2.11,7.86.48,9.87-4.35a4.9,4.9,0,0,1,4.1-3.11c16.27-2.85,29.68-11.84,43.25-20.32,4.84-3,9.88-3.72,15.18-3.76,23.49-.18,47-.17,70.49-.34a143.92,143.92,0,0,0,28.23-2.6,43.2,43.2,0,0,0,11.47-4.52c7.9-4.21,16.77-5.95,24.72-10.16,4.32-2.29,8.73.72,12.24,3.43,4.07,3.15,8.24,6.45,11.36,10.47,5.28,6.79,12.32,8.18,20.15,8.72,8.33.57,16.64.1,24.95-.12,6.26-.17,11.67-3.39,17.27-5.74a164.28,164.28,0,0,0,16.58-7.87c17.5-9.78,35.89-10.55,54.9-6a113.44,113.44,0,0,0,22.7,2.62c12,.41,24,.48,36,.8,22.5.61,43-6.27,62.67-16.48,5.88-3.06,11.76-6.13,17.58-9.32,15.55-8.52,33-10.21,49.87-14,17.21-3.89,34.55-7.12,51.58-12,15.45-4.48,31.27-8.29,47.61-9,13.56-.58,27.09-1.46,40.06-6.5,11.94-4.64,20.13.32,26,9.8,5.3,8.55,8.12,18.15,10.89,27.57,2.56,8.7,8.4,10.75,15.92,11.21,15.15,1,30.23-1.58,45.4-1.16,3.58.1,7.43-1.68,10.8-3.33,8.3-4.06,17.17-7.3,24.25-13.38,5.06-4.35,10.78-6,17-7.12,12.89-2.37,25.22-6.74,37.17-11.94,5.69-2.48,10.83-6.44,15.87-10.2,21.29-15.93,44.39-29.11,66.4-43.94,5.83-3.92,10.09-3,15.18,1.17,7.46,6.08,11.61,14.44,15.92,22.65,4.6,8.77,12,11.12,20.93,6.37a25.2,25.2,0,0,0,7.17-5.34c10.33-11.67,23.49-16,38.73-15.7,13.5.25,27,0,40.5-.07q0,180.74.09,361.46c0,3.66-.71,4.64-4.55,4.64Q1921,2161,5.44,2161.1c-3.88,0-4.53-1-4.53-4.66Q1.06,1879.23,1,1602c1.44-.19,1.12-1.51,1.29-2.32,1-4.66,4-7,8.31-8.59,13.39-4.84,26.11-11.21,38.91-17.42,15.88-7.71,31.3-16.48,48.44-21.36,6-1.72,12-3.56,17.87-5.78a115.13,115.13,0,0,1,39.8-7.42C185.41,1538.78,215.21,1538.86,245,1538.77Z" transform="translate(-0.91 -1.89)"/></g></g></g></svg>