<svg xmlns="http://www.w3.org/2000/svg" viewBox="0 0 204.56 202.19"><defs><style>.cls-1{fill:#fff;}</style></defs><g id="Layer_2" data-name="Layer 2"><g id="Layer_1-2" data-name="Layer 1"><g id="Group_2" data-name="Group 2"><g id="Group_1" data-name="Group 1"><path id="Path_1" data-name="Path 1" class="cls-1" d="M120.66,129.64A56.79,56.79,0,0,1,99,159.69l.87,1c4.49-3.16,9.22-6,13.44-9.55a63.31,63.31,0,0,0,16.53-21.8,4.46,4.46,0,0,1,2.5-2.36c4.44-.94,8.95-1.56,14.11-2.4-4,14-10.81,25.29-22.63,33.36a43.79,43.79,0,0,0,19.32-13.88c4.73-6.06,8.31-13,12.55-19.47a5.15,5.15,0,0,1,3.26-1.81c3.77-.58,7.6-.86,11-1.21,3.1,5,6,10.08,9.25,14.93,1.6,2.42,3.79,4.43,5.55,6.75a15.63,15.63,0,0,1,2.69,13.86c-5,21.07-17.55,35.6-37.86,43.08-10.73,4-21.41,1.49-31.53-2.53a219.61,219.61,0,0,1-44.69-23.88,113.8,113.8,0,0,0-60-20.24c-1.54-.08-3.08-.16-4.61-.31A29.81,29.81,0,0,1,0,151.41c3.6-2,7.06-4.35,10.82-6A93.05,93.05,0,0,0,54.57,106,250.68,250.68,0,0,1,85.21,64c7.67-8.49,16.13-16.71,28-17.88A67.37,67.37,0,0,1,138.5,47.9a58.87,58.87,0,0,1,28.72,19.55,19.52,19.52,0,0,1,3.51,20,116.57,116.57,0,0,0-2.95,14.32,30,30,0,0,0,0,4.64c9-1.24,17.54-2.42,26.08-3.58,1.94-.26,3.89-.53,5.84-.68a4,4,0,0,1,4.74,3.16c0,.15,0,.3.07.46a4.12,4.12,0,0,1-3.18,4.87,3.82,3.82,0,0,1-.75.08c-7.89,1.16-15.78,2.34-23.69,3.33-6.65.82-13.33,1.52-20,2a7.27,7.27,0,0,1-4.64-1.74,66.07,66.07,0,0,0-39.7-16.14,4.78,4.78,0,0,0-2.18.4,60.54,60.54,0,0,1,33.89,19.94c-5.18.81-9.74,1.66-14.34,2.13-1,.1-2.16-1.09-3.1-1.86A65.78,65.78,0,0,0,88,103.46a2.4,2.4,0,0,0-1.53.58A59.08,59.08,0,0,1,119,122.71c-5.08,1.33-9.79,2.71-14.58,3.69a5.78,5.78,0,0,1-3.65-1.51,65.78,65.78,0,0,0-33.89-13.2c-.7-.06-1.4-.11-2.1-.13a4.67,4.67,0,0,0-2.21.36,61.5,61.5,0,0,1,31,17c-8.74,2.08-17,4-25.24,6.09a17,17,0,0,0-4.25,2.63c1.57,1.36,3,3.46,4.75,3.87a16.19,16.19,0,0,0,6.94-.8c5.35-1.28,10.66-2.75,17-4.42-3.23,4.9-5.77,9-8.59,12.92s-5.85,7.52-8.79,11.27l-1.16-.87c1.51-.82,3-1.6,4.52-2.47a68.35,68.35,0,0,0,20.55-19.52,12.84,12.84,0,0,1,6.15-4.17C110.22,132,115.16,131,120.66,129.64Z"/><path id="Path_2" data-name="Path 2" class="cls-1" d="M5.2,7.93C13.78,10.31,22.25,13.2,31,15A91,91,0,0,0,78.17,12.1,275.35,275.35,0,0,1,133.87.32C158.6-2.44,177.55,12.8,184.66,34c3,9,5.2,18,3.51,27.58a13.61,13.61,0,0,1-6.48,10.93c-1.35-2.37-2.57-4.81-4.06-7.06a66.4,66.4,0,0,0-36.42-26.93c-8.45-2.63-17.94-2.34-27-2.5-3.48-.06-6.15-.05-8.16-3.11a3.14,3.14,0,0,0-2.26-1.24l3.41,5.27L96.8,41.44,81.66,20.93l-.32.43c3.09,6.76,6.11,13.55,9.28,20.27,1.42,3-.1,4.55-2.28,6.21s-3.89,3.16-7,1.23C76.44,46,71.13,43.47,66,40.75c-2.66,3.86-2.32,6.07,1.16,8.21,2,1.24,4.17,2.28,6.26,3.41s3.91,2.13,5.53,3c-4.26,10.19-12.69,10-21.77,9.48,1.82.48,3.64,1,5.49,1.4,2,.43,4.13.7,6.53,1.1L51.69,91.3C46.47,57,30,30,5.2,7.93Z"/></g></g></g></g></svg>