<svg xmlns="http://www.w3.org/2000/svg" viewBox="0 0 46 45.24"><defs><style>.cls-1{fill:#fff;}</style></defs><g id="Layer_2" data-name="Layer 2"><g id="Layer_1-2" data-name="Layer 1"><path class="cls-1" d="M20.43,26.42l-.67-.06A4.29,4.29,0,0,0,20.43,26.42Z"/><path class="cls-1" d="M26.9,31.8c-.3.07-.59.17-.9.23A5.4,5.4,0,0,0,26.9,31.8Z"/><path class="cls-1" d="M23.53,29.65c-.25,0-.5.06-.76.07A4.28,4.28,0,0,0,23.53,29.65Z"/><path class="cls-1" d="M29.45,35.13l-.77.18A7,7,0,0,0,29.45,35.13Z"/><path class="cls-1" d="M31.4,18.54a5.93,5.93,0,0,0-.56-.74C31,18,31.21,18.29,31.4,18.54Z"/><path class="cls-1" d="M22.2,20.35c-.31-.22-.51-.34-.51-.34C21.87,20.12,22,20.24,22.2,20.35Z"/><path class="cls-1" d="M35.25,17.65a5.3,5.3,0,0,0-.49-.61C34.93,17.24,35.09,17.45,35.25,17.65Z"/><path class="cls-1" d="M26.33,19.4c.2.17.37.35.56.53A5.5,5.5,0,0,0,26.33,19.4Z"/><path class="cls-1" d="M33.39,24.92l1.26.84c1.5-.49,3.08-.81,4.5-1.21h0a41.42,41.42,0,0,1,5.73-1.33L46,23l-.78-.71a27.25,27.25,0,0,0-4.48.77l-1.41.37v0c0-4.49-9-12.24-15.07-9.87-4,1.56-7.69,6.93-11.38,12.88C5.75,38,1.15,39.26,1.15,39.26s12.8.9,22.16,4.59c5.25,2.06,9.21,1.74,13.56-.35a13.51,13.51,0,0,0,4.91-4c2-2.65,2.66-4.67,2.34-6.77A8.24,8.24,0,0,0,42.43,29c-.93-1.2-2.21-2.82-2.77-3h-.07c-.26.06-2,.43-4.3,1.09l-.24,1.19c-.12.62-.26,1.23-.41,1.85a26.62,26.62,0,0,1-4.08,8.81,7.78,7.78,0,0,1-.45.65l.45-.65c.84-1.33,2.64-4.83,3.42-11.46-1.1.33-2.29.71-3.5,1.15l-.39.14-.24,1.18q-.15.74-.33,1.47a21.12,21.12,0,0,1-3.07,6.72,6.18,6.18,0,0,1-.52.78c.18-.25.34-.52.52-.78a22.76,22.76,0,0,0,2.56-9c-1.14.44-2.27.9-3.35,1.37l-.26.89c-.11.35-.23.7-.35,1a14.22,14.22,0,0,1-3.16,4.85,5.29,5.29,0,0,1-.53.56c.19-.18.35-.38.53-.56A13.76,13.76,0,0,0,24.54,31c-1.33.59-2.53,1.14-3.47,1.57l-.07.16q-.16.38-.36.75A10.94,10.94,0,0,1,17.42,37a5,5,0,0,1-.54.41c.19-.13.36-.27.54-.41A8.86,8.86,0,0,0,20,33.1l-.66.29L8.61,37.92c3.65-1.5,7.4-3.47,11.22-5.46a9.05,9.05,0,0,0-5.12-1.21l-.6.09a5.68,5.68,0,0,1,.6-.09,11.15,11.15,0,0,1,4.8.17c.26.08.53.18.78.27l.59.23c1.07-.55,2.14-1.1,3.22-1.64a13.6,13.6,0,0,0-6.16-2.46c-.26,0-.51,0-.77,0a5.59,5.59,0,0,1,.77,0A14.21,14.21,0,0,1,23.6,29c.34.16.67.33,1,.5l.51.27c1.1-.54,2.21-1.06,3.32-1.57a22.79,22.79,0,0,0-8-4.43c-.3-.06-.6-.13-.91-.18a6.67,6.67,0,0,1,.91.18,21.18,21.18,0,0,1,6.93,2.58c.43.26.86.53,1.27.81l.88.58c1.25-.54,2.49-1.05,3.74-1.5-5.24-4.13-9-5.34-10.53-5.69l-.77-.13a6.12,6.12,0,0,1,.77.13,26.74,26.74,0,0,1,9.12,3.35C32.33,24.24,32.87,24.57,33.39,24.92Z"/><path class="cls-1" d="M21.34,17.34l.08.08-.07-.08Z"/><path class="cls-1" d="M17.1,19.33a5,5,0,0,0-.62-.46C16.7,19,16.89,19.18,17.1,19.33Z"/><path class="cls-1" d="M42.41,17C45,13.26,42,1.75,35.7.24,31.55-.76,25.42,1.53,19,4.29,6.57,9.64,0,9.48,0,9.48S8.82,15.3,13.05,22.67a21.48,21.48,0,0,1,2.87-5.33c1.5-2,2.36-3.12,4.16-3.78L9,11.21c3.83.85,8,1.17,12.21,1.73,0,0,.09.2.1.19a8.91,8.91,0,0,0-3.5-3.9c-.18-.09-.35-.19-.54-.27a4.23,4.23,0,0,1,.54.27,11.12,11.12,0,0,1,3.84,2.88c.17.22.34.45.49.68l0,.05c1.06-.34,2.08-.62,3.07-.85a12.5,12.5,0,0,0-2.83-3.73l-.61-.46a5.57,5.57,0,0,1,.61.46,14.65,14.65,0,0,1,3.54,3.58,15.71,15.71,0,0,1,3.76-.31,19.11,19.11,0,0,0-3-5.18c-.22-.22-.42-.46-.64-.67a6.08,6.08,0,0,1,.64.67,21.34,21.34,0,0,1,3.79,5.26c.25,0,.49.08.73.14a7.93,7.93,0,0,1,4.28,3C33.63,9,31.44,6.12,30.43,5l-.56-.56a7.51,7.51,0,0,1,.56.56A26.78,26.78,0,0,1,36,13c.25.58.5,1.16.73,1.75l.56,1.4c1.5.46,1.87,2.37,3.26,2.85"/><path class="cls-1" d="M24.75,15.7h0l.39.39c-.16-.18-.29-.31-.38-.4Z"/><path class="cls-1" d="M20.77,16.75c.14.13.27.27.4.41h0A4,4,0,0,0,20.77,16.75Z"/></g></g></svg>