<svg xmlns="http://www.w3.org/2000/svg" viewBox="0 0 70 70"><defs><style>.cls-1{fill:#b09ccb;fill-rule:evenodd;opacity:0.54;isolation:isolate;}</style></defs><g id="Layer_2" data-name="Layer 2"><g id="Layer_1-2" data-name="Layer 1"><path id="path" class="cls-1" d="M38.5,0V10.58c11.11,1.76,20.38,12,20.38,24.32,0,3.17-1.86,6-3,8.81L65.18,49C67.4,44.77,70,39.83,70,34.55,70.36,16.57,57,1.76,38.5,0ZM33.62,59.45c-13.8,0-23-10.91-23-24.63,0-12.31,8.85-22.51,23-24.27V0C15.93,1.41,0,16.53,0,34.82,0,54.17,14.86,70,34.68,70,46.36,70,56.27,64.37,63,55.58L53.44,50.3a25.83,25.83,0,0,1-19.82,9.15Z"/></g></g></svg>