<svg xmlns="http://www.w3.org/2000/svg" viewBox="0 0 240.04 240.04"><defs><style>.cls-1{fill:#b09ccb;fill-rule:evenodd;opacity:0.54;isolation:isolate;}</style></defs><g id="Layer_2" data-name="Layer 2"><g id="Layer_1-2" data-name="Layer 1"><path id="path" class="cls-1" d="M132,0V36.26c38.12,6.05,69.88,41.1,69.88,83.41,0,10.88-6.35,20.55-10.17,30.22L223.5,168C231.12,153.52,240,136.6,240,118.46,241.28,56.81,195.54,6,132,0ZM115.3,203.85c-47.33,0-78.89-37.39-78.89-84.43,0-42.22,30.34-77.2,78.89-83.23V0C54.62,4.82,0,56.69,0,119.42,0,185.76,51,240,118.94,240c40.05,0,74-19.3,97.09-49.46l-32.77-18.09c-15.77,19.3-41.26,31.36-68,31.36Z"/></g></g></svg>