<svg xmlns="http://www.w3.org/2000/svg" viewBox="0 0 70 52.24"><defs><style>.cls-1{fill:#af9ccb;}</style></defs><g id="Layer_2" data-name="Layer 2"><g id="Layer_1-2" data-name="Layer 1"><g id="Group_268" data-name="Group 268"><g id="Group_267" data-name="Group 267"><path id="Path_65" data-name="Path 65" class="cls-1" d="M.19,49.32V24a51.87,51.87,0,0,0-.08-7.69C-.48,12.35,1.34,10,4.62,7.94V44.11c9.93.08,19.25,1.62,27,8.13A59.5,59.5,0,0,0,.19,49.32Z"/><path id="Path_66" data-name="Path 66" class="cls-1" d="M65.38,7.84c3.07,2.1,4.73,3.95,4.61,7.6-.34,10.33-.14,20.68-.15,31V48.7c-5.36,0-10.57-.38-15.69.11s-10,1.84-15.08,2.83c7.65-6,16.68-7.44,26.31-7.51Z"/><path id="Path_67" data-name="Path 67" class="cls-1" d="M62.46,41.52c-8.22.28-15.8,1.92-23,6C42.11,42.8,48,39.59,58.13,37.26V0C61,2.15,62.91,3.88,62.76,7.68c-.4,10.4-.24,20.82-.3,31.23Z"/><path id="Path_68" data-name="Path 68" class="cls-1" d="M11.93,37.48c8.17.52,14.37,4.3,19.39,10.3-7.23-4.29-15.17-5.94-23.71-6.27V38.89q0-15.4,0-30.81c0-4.73,0-4.73,4.36-7.89Z"/></g></g></g></g></svg>