<svg xmlns="http://www.w3.org/2000/svg" viewBox="0 0 70 62.94"><defs><style>.cls-1{fill:#fff;}.cls-2{fill:#b09ccb;}</style></defs><g id="Layer_2" data-name="Layer 2"><g id="Layer_1-2" data-name="Layer 1"><g id="Group_255" data-name="Group 255"><path id="Path_59" data-name="Path 59" class="cls-1" d="M0,31.35c0,5.29,5.16,10.23,13.3,13C11.67,52.54,13,59.13,17.46,61.7s11.41.82,17.88-4.84c6.31,5.43,12.69,7.57,17.15,5s6-9.69,4.29-18.13c8.48-2.8,13.22-7,13.22-12.36,0-5.17-5.17-9.64-13.2-12.4,1.8-8.79.28-15.22-4.37-17.9C48-1.52,41.51.73,35.1,6.31c-6.66-5.92-13-7.73-17.69-5C13,3.85,11.67,10.57,13.3,18.9,5.44,21.64,0,26.21,0,31.35Z"/><path id="Path_60" data-name="Path 60" class="cls-2" d="M55.1,21.7c-.66-.22-1.33-.43-2-.63.11-.45.21-.9.31-1.36,1.51-7.35.52-13.28-2.86-15.23S42,4.56,36.64,9.22c-.52.46-1,.94-1.54,1.42-.34-.32-.68-.64-1-1-5.62-5-11.24-7.08-14.62-5.13S15.25,12,16.61,19c.14.69.29,1.37.46,2.06-.79.22-1.56.46-2.3.72C8.19,24.05,4,27.65,4,31.38S8.5,39.1,15.35,41.44c.56.19,1.12.37,1.68.53q-.27,1.1-.48,2.22c-1.31,6.84-.29,12.28,2.94,14.14s8.94,0,14.4-4.82c.43-.37.86-.77,1.29-1.19.55.52,1.11,1,1.68,1.53,5.29,4.55,10.5,6.38,13.73,4.51s4.42-7.77,3-14.87c-.1-.55-.23-1.1-.37-1.67.4-.11.78-.23,1.16-.36,7.12-2.36,11.76-6.17,11.76-10.08,0-3.74-4.34-7.36-11.05-9.67Z"/><path id="Path_61" data-name="Path 61" class="cls-1" d="M53.55,38.94l-1,.33a62.22,62.22,0,0,0-3.15-7.88,63,63,0,0,0,3-7.76c.63.19,1.25.38,1.85.59,5.75,2,9.26,4.9,9.26,7.16s-3.79,5.52-10,7.56ZM51,44a22.61,22.61,0,0,1,.3,8.21c-.37,2-1.12,3.32-2,3.85-2,1.14-6.15-.34-10.66-4.22-.52-.45-1-.92-1.57-1.43a59.48,59.48,0,0,0,5.21-6.62,61.14,61.14,0,0,0,8.42-1.29c.13.51.24,1,.34,1.5ZM25.18,55.87c-1.91.67-3.44.69-4.36.16-2-1.13-2.78-5.49-1.66-11.35.13-.69.28-1.38.45-2.06A62.19,62.19,0,0,0,28,43.83a64.77,64.77,0,0,0,5.33,6.59c-.38.38-.78.74-1.18,1.09a22.42,22.42,0,0,1-7,4.36Zm-9-16.94A22.81,22.81,0,0,1,9,35.08c-1.54-1.33-2.32-2.64-2.32-3.7,0-2.26,3.38-5.15,9-7.11.7-.25,1.42-.47,2.14-.68a61.17,61.17,0,0,0,3,7.85,63.61,63.61,0,0,0-3.07,8c-.52-.15-1-.31-1.54-.48Zm3-20.46c-1.17-6-.39-10.48,1.56-11.61s6.68.51,11.52,4.82c.31.27.63.56.94.86a62.94,62.94,0,0,0-5.3,6.55,64.36,64.36,0,0,0-8.29,1.29c-.16-.63-.3-1.27-.43-1.91ZM46,25.09C45.43,24,44.8,23,44.14,22a57,57,0,0,1,5.67,1,53.68,53.68,0,0,1-2,5.35c-.57-1.09-1.17-2.17-1.79-3.23ZM35.1,14.44q1.93,2.12,3.66,4.41-3.67-.17-7.35,0c1.21-1.59,2.44-3.07,3.69-4.41Zm-11,10.67c-.61,1.05-1.19,2.13-1.75,3.21-.77-1.83-1.44-3.64-2-5.38,1.78-.4,3.67-.72,5.64-1-.66,1-1.3,2.08-1.91,3.14Zm2,15.87a55.15,55.15,0,0,1-5.73-.93c.55-1.77,1.22-3.61,2-5.48.56,1.08,1.15,2.15,1.76,3.21s1.28,2.15,2,3.2Zm9.11,7.53c-1.26-1.36-2.51-2.86-3.74-4.48,1.19,0,2.4.07,3.64.07s2.52,0,3.75-.08a56.29,56.29,0,0,1-3.65,4.49Zm12.68-14c.79,1.79,1.48,3.61,2.09,5.47a57.11,57.11,0,0,1-5.8,1c.65-1,1.29-2.1,1.9-3.16s1.23-2.19,1.81-3.3Zm-4.11,2c-.94,1.63-1.93,3.24-3,4.81-1.84.13-3.75.2-5.69.2s-3.82-.06-5.63-.18c-1.07-1.57-2.08-3.17-3-4.82s-1.83-3.3-2.65-5q1.23-2.55,2.65-5h0c.94-1.64,1.94-3.23,3-4.8,1.85-.14,3.75-.21,5.66-.21s3.82.07,5.67.22c1.06,1.55,2.06,3.15,3,4.78s1.84,3.29,2.68,5q-1.24,2.55-2.67,5ZM49.22,6.78c2.08,1.2,2.89,6,1.59,12.39-.09.42-.18.83-.28,1.24a63.16,63.16,0,0,0-8.32-1.31A60.34,60.34,0,0,0,37,12.54c.46-.45.94-.89,1.43-1.31,4.59-4,8.88-5.57,10.83-4.45Z"/><path id="Path_62" data-name="Path 62" class="cls-2" d="M35.07,25.83a5.55,5.55,0,1,1-5.55,5.55h0a5.54,5.54,0,0,1,5.55-5.55"/></g></g></g></svg>