<svg xmlns="http://www.w3.org/2000/svg" viewBox="0 0 517.96 265.59"><defs><style>.cls-1{fill:#FFCB96;}</style></defs><g id="Layer_2" data-name="Layer 2"><g id="Layer_1-2" data-name="Layer 1"><g id="Group_269" data-name="Group 269"><g id="Group_268" data-name="Group 268"><g id="Group_267" data-name="Group 267"><path id="Path_65" data-name="Path 65" class="cls-1" d="M63.05,154.43,0,104.35l8.47-6.46,31.31,25.8c7.73,6.34,15.29,12.81,20.95,18l.19-.14c-3.69-6.95-7.37-15.79-11.36-25.42L34,78.46l8.39-6.39L73.93,97.82c7.36,6,14.64,12.14,20.54,18l.18-.14c-3.9-7.8-7.41-16-11.37-25.25L67.61,52.84l8.2-6.25,29.7,75.49-8.38,6.39L64.67,102.1a235.5,235.5,0,0,1-19.5-17.18l-.18.14A245.62,245.62,0,0,1,55.64,109l15.79,39.07Z"/><path id="Path_66" data-name="Path 66" class="cls-1" d="M152.48,59.84l-28,11.72,10.89,26,31.18-13.07,3.27,7.8-40.48,17-30.16-72,38.87-16.29,3.27,7.8-29.58,12.4,9.53,22.74,28-11.73Z"/><path id="Path_67" data-name="Path 67" class="cls-1" d="M162.68,13.57l9.84-2.12,14.69,68,32.6-7,1.78,8.26-42.44,9.16Z"/><path id="Path_68" data-name="Path 68" class="cls-1" d="M279.24,76.24c-3.65,2-11,4-20.5,4.29-22,.63-38.94-12.8-39.67-38.37C218.38,17.73,234.46.71,258.65,0c9.73-.28,15.92,1.63,18.62,2.94l-2.2,8.29a36.67,36.67,0,0,0-15.83-2.79C241,9,229.13,21,229.71,41.51c.54,19.1,11.89,31.05,30.87,30.51,6.13-.17,12.35-1.62,16.34-3.7Z"/><path id="Path_69" data-name="Path 69" class="cls-1" d="M358.68,53.58c-5.43,26.31-24.29,37-43.8,32.94-20.19-4.16-31.15-22.73-26.38-45.87,5-24.27,23.36-37,43.78-32.83C353.15,12.12,363.35,30.89,358.68,53.58Zm-59.58-11c-3.37,16.33,2.47,32.78,18,36s27.47-9.36,31-26.71c3.13-15.2-1.54-32.71-18-36.1s-27.61,10-31.07,26.82Z"/><path id="Path_70" data-name="Path 70" class="cls-1" d="M432.43,95.61c4.6-9.89,10.12-21.77,14.79-30.3l-.31-.17C440.27,72,432.84,79,424.31,86.71l-29.93,27-6.75-3.58,6.29-38.75c1.88-11.45,3.85-21.82,6.25-31l-.2-.11C395.21,48.7,388.56,60,382.46,70L364.92,98.56l-8.49-4.51,41.42-66.37,11.35,6-5.95,39.58c-1.65,10-3.31,18.83-5.38,26.91l.31.16c5.43-6,11.91-12.29,19.59-19.35l30-26.83,11.35,6-32.31,71.21-8.69-4.62Z"/><path id="Path_71" data-name="Path 71" class="cls-1" d="M488.91,139.65l-22.53-20.31-18.85,20.9,25.12,22.64L467,169.16l-32.6-29.39,52.26-58L518,110l-5.66,6.28L488.47,94.83,472,113.15l22.54,20.31Z"/></g></g><g id="Group_267-2" data-name="Group 267-2"><path id="Path_65-2" data-name="Path 65-2" class="cls-1" d="M316.74,189.84a2.84,2.84,0,0,0-2,.81,3.16,3.16,0,0,0-.91,2.17h5.79a3.48,3.48,0,0,0-.67-2A2.71,2.71,0,0,0,316.74,189.84Z"/><path id="Path_66-2" data-name="Path 66-2" class="cls-1" d="M232.41,194.81a1.53,1.53,0,0,0-.7.58,1.55,1.55,0,0,0,.29,2,2.31,2.31,0,0,0,1.56.47,3.7,3.7,0,0,0,1.81-.44,2.79,2.79,0,0,0,1.16-1.22,4.23,4.23,0,0,0,.28-1.76v-.64a12.86,12.86,0,0,1-2.87.66A7.23,7.23,0,0,0,232.41,194.81Z"/><path id="Path_67-2" data-name="Path 67-2" class="cls-1" d="M305.26,189.85a2.46,2.46,0,0,0-2,1,4.74,4.74,0,0,0-.78,3,4.48,4.48,0,0,0,.83,3,2.54,2.54,0,0,0,2,1,2.47,2.47,0,0,0,2-.94,4.33,4.33,0,0,0,.8-2.88,4.87,4.87,0,0,0-.82-3.12A2.54,2.54,0,0,0,305.26,189.85Z"/><path id="Path_68-2" data-name="Path 68-2" class="cls-1" d="M407.58,173.85H108l9.77,16.39L108,208.37H407.58l-8.09-17.26ZM317,184.61h2.3l-2.15,2.73h-1.46ZM183.76,199h-1.9V184.69h1.9Zm4.89-12.85a4.37,4.37,0,0,1-.3,1.89,2.71,2.71,0,0,1-1.31,1.19l-.43-.7a1.52,1.52,0,0,0,.79-.67,2.84,2.84,0,0,0,.28-1.28h-.91v-2h1.88ZM205.37,199h-1.75v-6.53a4.9,4.9,0,0,0-.17-1.52,1.57,1.57,0,0,0-.62-.75,2,2,0,0,0-1.06-.28,2.46,2.46,0,0,0-1.81.73,3.23,3.23,0,0,0-.73,2.33v6h-1.75v-6.73a3,3,0,0,0-.43-1.76,1.63,1.63,0,0,0-1.41-.59,2.56,2.56,0,0,0-1.37.39,2.18,2.18,0,0,0-.91,1.14,6.43,6.43,0,0,0-.29,2.17V199h-1.76V188.63h1.58v1.46a3.54,3.54,0,0,1,1.3-1.22,3.6,3.6,0,0,1,1.84-.47,3.46,3.46,0,0,1,1.89.48,2.56,2.56,0,0,1,1,1.34,3.72,3.72,0,0,1,3.2-1.82,3.21,3.21,0,0,1,2.38.86,3.68,3.68,0,0,1,.83,2.63Zm22,0h-1.83V187l-4.16,12h-1.71l-4.14-12.18V199h-1.83V184.69h2.86l3.38,10.13c.32,1,.54,1.66.69,2.12.16-.52.41-1.28.76-2.3l3.43-10h2.55Zm9.95,0a3.75,3.75,0,0,1-.35-1.28,6.48,6.48,0,0,1-1.88,1.18,5.58,5.58,0,0,1-1.94.34,3.8,3.8,0,0,1-2.63-.84,2.74,2.74,0,0,1-.91-2.13,2.78,2.78,0,0,1,.34-1.39,2.85,2.85,0,0,1,.91-1,4.18,4.18,0,0,1,1.27-.58,11.54,11.54,0,0,1,1.56-.26,15.9,15.9,0,0,0,3.13-.61c0-.24,0-.39,0-.46a1.91,1.91,0,0,0-.5-1.51,2.93,2.93,0,0,0-2-.6,3.09,3.09,0,0,0-1.83.43,2.61,2.61,0,0,0-.87,1.54l-1.72-.23a4.21,4.21,0,0,1,.77-1.79,3.41,3.41,0,0,1,1.55-1,7,7,0,0,1,2.36-.37,6.27,6.27,0,0,1,2.15.32,2.91,2.91,0,0,1,1.23.78,2.79,2.79,0,0,1,.54,1.2,9.78,9.78,0,0,1,.09,1.62v2.35a24.71,24.71,0,0,0,.11,3.1,4,4,0,0,0,.45,1.24Zm9-8.4a2.43,2.43,0,0,0-1.28-.39,1.69,1.69,0,0,0-1,.35,1.92,1.92,0,0,0-.65,1,6.83,6.83,0,0,0-.3,2V199H241.3V188.63h1.58v1.57a4.17,4.17,0,0,1,1.12-1.45,2,2,0,0,1,1.12-.35,3.42,3.42,0,0,1,1.81.56Zm4.42,8.54a3,3,0,0,1-1.49-.3,1.74,1.74,0,0,1-.74-.8,6.29,6.29,0,0,1-.21-2.07v-6H247v-1.37h1.29v-2.57l1.75-1.05v3.62h1.76V190h-1.76v6.06a2.86,2.86,0,0,0,.09,1,.71.71,0,0,0,.3.34,1.12,1.12,0,0,0,.6.13,6.68,6.68,0,0,0,.77-.07l.25,1.55A6.53,6.53,0,0,1,250.74,199.14Zm4.56-.14h-1.76V188.63h1.76Zm0-12.29h-1.76v-2h1.76ZM266.4,199h-1.76v-6.31a4.57,4.57,0,0,0-.2-1.6,1.69,1.69,0,0,0-.73-.85,2.31,2.31,0,0,0-1.23-.32,2.85,2.85,0,0,0-1.93.71,3.5,3.5,0,0,0-.82,2.7V199H258V188.63h1.58v1.48a3.73,3.73,0,0,1,3.3-1.71,4.47,4.47,0,0,1,1.73.33,2.78,2.78,0,0,1,1.17.89,3.26,3.26,0,0,1,.55,1.3,9.76,9.76,0,0,1,.1,1.71Zm17.34,0H274.8V184.69h1.9v12.62h7.05Zm3.8,0h-1.75V188.63h1.75Zm0-12.29h-1.75v-2h1.75ZM298.64,199h-1.75v-6.31a5.1,5.1,0,0,0-.2-1.6,1.69,1.69,0,0,0-.73-.85,2.31,2.31,0,0,0-1.23-.32,2.89,2.89,0,0,0-1.94.71,3.54,3.54,0,0,0-.81,2.7V199h-1.76V188.63h1.58v1.48a3.73,3.73,0,0,1,3.3-1.71,4.47,4.47,0,0,1,1.73.33,2.78,2.78,0,0,1,1.17.89,3.41,3.41,0,0,1,.55,1.3,10.83,10.83,0,0,1,.1,1.71Zm11.06,0h-1.63v-1.31a3.24,3.24,0,0,1-2.9,1.55,4.1,4.1,0,0,1-2.28-.69,4.4,4.4,0,0,1-1.61-1.91,6.62,6.62,0,0,1-.58-2.81,7.54,7.54,0,0,1,.52-2.82,4.11,4.11,0,0,1,1.55-1.94,4.16,4.16,0,0,1,2.32-.67,3.47,3.47,0,0,1,2.86,1.43v-5.14h1.75Zm11.73-4.73h-7.74a4,4,0,0,0,1,2.61,2.87,2.87,0,0,0,2.17.91,2.65,2.65,0,0,0,1.65-.51,3.33,3.33,0,0,0,1.08-1.62l1.82.23a4.5,4.5,0,0,1-1.59,2.47,5.4,5.4,0,0,1-6.58-.52,5.49,5.49,0,0,1-1.33-3.93,5.74,5.74,0,0,1,1.34-4.07,4.58,4.58,0,0,1,3.5-1.44,4.4,4.4,0,0,1,3.4,1.41,5.63,5.63,0,0,1,1.32,4c0,.1,0,.26,0,.47ZM332,199h-1.76v-6.31a4.57,4.57,0,0,0-.2-1.6,1.63,1.63,0,0,0-.72-.85,2.31,2.31,0,0,0-1.23-.32,2.89,2.89,0,0,0-1.94.71,3.54,3.54,0,0,0-.81,2.7V199h-1.76V188.63h1.58v1.48a3.73,3.73,0,0,1,3.3-1.71,4.47,4.47,0,0,1,1.73.33,2.78,2.78,0,0,1,1.17.89,3.41,3.41,0,0,1,.55,1.3,9.76,9.76,0,0,1,.1,1.71Z"/></g><g id="Group_268-2" data-name="Group 268-2"><path id="Path_69-2" data-name="Path 69-2" class="cls-1" d="M302.64,245.84a2.86,2.86,0,0,0-2,.81,3.25,3.25,0,0,0-.91,2.17h5.79a3.55,3.55,0,0,0-.66-2A2.71,2.71,0,0,0,302.64,245.84Z"/><path id="Path_70-2" data-name="Path 70-2" class="cls-1" d="M318.14,245.85a2.82,2.82,0,0,0-2.19,1,5.54,5.54,0,0,0,0,6,2.89,2.89,0,0,0,4.08.28,3.83,3.83,0,0,0,.29-.28,4.6,4.6,0,0,0,.87-3,4.33,4.33,0,0,0-.88-2.92A2.8,2.8,0,0,0,318.14,245.85Z"/><path id="Path_71-2" data-name="Path 71-2" class="cls-1" d="M250,245.85a2.48,2.48,0,0,0-2,1,4.74,4.74,0,0,0-.78,3,4.54,4.54,0,0,0,.84,3,2.54,2.54,0,0,0,2,1,2.49,2.49,0,0,0,2-.94,4.4,4.4,0,0,0,.81-2.88,4.94,4.94,0,0,0-.83-3.12A2.53,2.53,0,0,0,250,245.85Z"/><path id="Path_72" data-name="Path 72" class="cls-1" d="M329.5,245.77a2.56,2.56,0,0,0-2,1,4.77,4.77,0,0,0-.87,3.06,4.55,4.55,0,0,0,.81,3,2.5,2.5,0,0,0,2,1,2.52,2.52,0,0,0,2-1,4.66,4.66,0,0,0,.84-3.07,4.57,4.57,0,0,0-.82-3A2.48,2.48,0,0,0,329.5,245.77Z"/><path id="Path_73" data-name="Path 73" class="cls-1" d="M281.52,245.84a2.82,2.82,0,0,0-2,.81,3.25,3.25,0,0,0-.91,2.17h5.79a3.55,3.55,0,0,0-.66-2A2.71,2.71,0,0,0,281.52,245.84Z"/><path id="Path_74" data-name="Path 74" class="cls-1" d="M270.38,242.67a7.32,7.32,0,0,0-2.46-.29h-3v10.93H268a7.22,7.22,0,0,0,2.22-.26,3.17,3.17,0,0,0,1.28-.74,4.54,4.54,0,0,0,1-1.81,8.93,8.93,0,0,0,.38-2.76,6.65,6.65,0,0,0-.74-3.45A3.66,3.66,0,0,0,270.38,242.67Z"/><path id="Path_75" data-name="Path 75" class="cls-1" d="M421.3,228.88h-323l10.54,17.43L98.25,265.59H421.3l-8.73-18.36Zm-243,13.5h-7.77v4.43h6.72v1.69h-6.72V255h-1.9V240.69h9.66Zm7.24,4.22a2.46,2.46,0,0,0-1.29-.38,1.66,1.66,0,0,0-1,.34,1.87,1.87,0,0,0-.66,1,6.73,6.73,0,0,0-.29,2.05V255h-1.76V244.63h1.58v1.57a4.42,4.42,0,0,1,1.12-1.45,2,2,0,0,1,1.13-.35,3.44,3.44,0,0,1,1.81.56Zm10.11,6.22a4.29,4.29,0,0,1-1.74,1.79,5.11,5.11,0,0,1-2.51.63,4.68,4.68,0,0,1-3.52-1.4,5.57,5.57,0,0,1-1.34-4,5.33,5.33,0,0,1,1.6-4.27,4.84,4.84,0,0,1,3.26-1.15,4.65,4.65,0,0,1,3.5,1.4,5.35,5.35,0,0,1,1.36,3.87,6.85,6.85,0,0,1-.61,3.15ZM206.74,255H205v-6.32a4.57,4.57,0,0,0-.2-1.6,1.67,1.67,0,0,0-.72-.85,2.31,2.31,0,0,0-1.23-.32,2.89,2.89,0,0,0-1.94.71,3.51,3.51,0,0,0-.81,2.71V255h-1.76V244.63h1.58v1.48a3.73,3.73,0,0,1,3.3-1.71,4.47,4.47,0,0,1,1.73.33,2.7,2.7,0,0,1,1.17.89,3.41,3.41,0,0,1,.55,1.3,10.83,10.83,0,0,1,.1,1.71Zm5.46.13a2.92,2.92,0,0,1-1.48-.3,1.69,1.69,0,0,1-.75-.79,6.35,6.35,0,0,1-.21-2.08v-6h-1.29v-1.37h1.29v-2.57l1.75-1.06v3.63h1.77V246h-1.77v6.06a3.17,3.17,0,0,0,.09,1,.76.76,0,0,0,.3.34,1.25,1.25,0,0,0,.6.13,6.48,6.48,0,0,0,.77-.07l.26,1.55a6.61,6.61,0,0,1-1.33.15Zm7.51-4.43h-5.4v-1.77h5.4ZM232.6,255H221.92V240.69h10.35v1.69h-8.46v4.38h7.92v1.68h-7.92v4.87h8.79Zm10.82,0h-1.76v-6.32a4.57,4.57,0,0,0-.2-1.6,1.69,1.69,0,0,0-.73-.85,2.28,2.28,0,0,0-1.22-.32,2.85,2.85,0,0,0-1.94.71,3.51,3.51,0,0,0-.82,2.71V255H235V244.63h1.59v1.48a3.7,3.7,0,0,1,3.3-1.71,4.42,4.42,0,0,1,1.72.33,2.73,2.73,0,0,1,1.18.89,3.39,3.39,0,0,1,.54,1.3,8.88,8.88,0,0,1,.1,1.71Zm11.06,0h-1.63v-1.32a3.24,3.24,0,0,1-2.9,1.55,4.08,4.08,0,0,1-2.28-.69,4.49,4.49,0,0,1-1.62-1.91,6.61,6.61,0,0,1-.57-2.81A7.31,7.31,0,0,1,246,247a4.11,4.11,0,0,1,1.55-1.94,4.16,4.16,0,0,1,2.32-.67,3.48,3.48,0,0,1,1.67.39,3.57,3.57,0,0,1,1.19,1v-5.14h1.75Zm20-4.35a7,7,0,0,1-1,2.09,5,5,0,0,1-1.3,1.3,5.27,5.27,0,0,1-1.71.72,9.88,9.88,0,0,1-2.3.24H263V240.69H268a11.45,11.45,0,0,1,2.55.2,4.92,4.92,0,0,1,2.1,1,5.87,5.87,0,0,1,1.7,2.44,9.63,9.63,0,0,1,.56,3.4,10.5,10.5,0,0,1-.38,2.9Zm11.73-.39h-7.74a4,4,0,0,0,1,2.62,2.87,2.87,0,0,0,2.17.91,2.65,2.65,0,0,0,1.65-.51,3.33,3.33,0,0,0,1.08-1.62l1.82.22a4.45,4.45,0,0,1-1.6,2.48,5.38,5.38,0,0,1-6.57-.53,5.47,5.47,0,0,1-1.34-3.93,5.74,5.74,0,0,1,1.35-4.06,4.54,4.54,0,0,1,3.5-1.44,4.4,4.4,0,0,1,3.4,1.41,5.63,5.63,0,0,1,1.32,4c0,.09,0,.25,0,.46Zm6.67,4.74h-1.64l-3.94-10.37h1.85l2.23,6.21c.24.67.46,1.37.67,2.09.15-.55.37-1.2.65-2l2.3-6.33h1.81Zm14.45-4.74h-7.74a4,4,0,0,0,1,2.62,2.87,2.87,0,0,0,2.17.91,2.65,2.65,0,0,0,1.65-.51,3.33,3.33,0,0,0,1.08-1.62l1.82.22a4.49,4.49,0,0,1-1.59,2.48,5.39,5.39,0,0,1-6.58-.53,5.46,5.46,0,0,1-1.33-3.93,5.73,5.73,0,0,1,1.34-4.06,4.55,4.55,0,0,1,3.5-1.44,4.44,4.44,0,0,1,3.41,1.41,5.67,5.67,0,0,1,1.31,4c0,.09,0,.25,0,.46ZM311.2,255h-1.75V240.69h1.75Zm11.19-2.18a4.29,4.29,0,0,1-1.75,1.78,5.08,5.08,0,0,1-2.5.63,4.61,4.61,0,0,1-3.52-1.4,5.61,5.61,0,0,1-1.35-4,5.37,5.37,0,0,1,1.6-4.27,4.87,4.87,0,0,1,3.27-1.15,4.65,4.65,0,0,1,3.5,1.4,5.29,5.29,0,0,1,1.35,3.87,6.82,6.82,0,0,1-.6,3.15Zm11.09-.22a4.3,4.3,0,0,1-3.94,2.63,3.2,3.2,0,0,1-1.58-.37,3.6,3.6,0,0,1-1.15-.93V259h-1.76V244.63h1.6V246a3.94,3.94,0,0,1,1.28-1.19,3.57,3.57,0,0,1,1.73-.39,4.05,4.05,0,0,1,2.34.68,4.22,4.22,0,0,1,1.54,1.93,7.08,7.08,0,0,1,.51,2.73,6.79,6.79,0,0,1-.57,2.87Zm11.66-2.34h-7.73a4,4,0,0,0,1,2.62,2.87,2.87,0,0,0,2.17.91,2.65,2.65,0,0,0,1.65-.51,3.42,3.42,0,0,0,1.09-1.62l1.81.22a4.38,4.38,0,0,1-1.59,2.48,5.39,5.39,0,0,1-6.58-.53,5.46,5.46,0,0,1-1.33-3.93,5.74,5.74,0,0,1,1.35-4.06,4.54,4.54,0,0,1,3.5-1.44,4.43,4.43,0,0,1,3.4,1.41,5.68,5.68,0,0,1,1.32,4c0,.09,0,.25,0,.46Zm7.17-3.67a2.55,2.55,0,0,0-1.29-.38,1.72,1.72,0,0,0-1,.35,1.88,1.88,0,0,0-.65,1,6.78,6.78,0,0,0-.29,2.05V255h-1.76V244.63h1.58v1.57a4.29,4.29,0,0,1,1.12-1.45,2,2,0,0,1,1.13-.35,3.38,3.38,0,0,1,1.8.56Z"/><path id="Path_76" data-name="Path 76" class="cls-1" d="M340.45,245.84a2.8,2.8,0,0,0-2,.81,3.22,3.22,0,0,0-.92,2.17h5.8a3.56,3.56,0,0,0-.67-2A2.71,2.71,0,0,0,340.45,245.84Z"/><path id="Path_77" data-name="Path 77" class="cls-1" d="M191.4,245.85a2.84,2.84,0,0,0-2.19,1,5.54,5.54,0,0,0,0,6,2.9,2.9,0,0,0,4.09.28l.28-.28a4.6,4.6,0,0,0,.87-3,4.33,4.33,0,0,0-.88-2.92A2.78,2.78,0,0,0,191.4,245.85Z"/></g></g></g></g></svg>