<svg xmlns="http://www.w3.org/2000/svg" viewBox="0 0 70 126.31"><defs><style>.cls-1{fill:#b09ccb;}</style></defs><g id="Layer_2" data-name="Layer 2"><g id="Layer_1-2" data-name="Layer 1"><g id="Group_270" data-name="Group 270"><g id="Group_269" data-name="Group 269"><path id="Path_69" data-name="Path 69" class="cls-1" d="M2.37.92C.21,17.21,2.34,32.58,12.28,46c8.58,11.58,23.85,17.33,37,7.71,14.9-10.92,19-26.6,18.54-44.07-.08-2.9-.59-5.77-.74-8.66,3.84,11.56,3.7,23.21.85,35s-10.57,20.57-19.38,28c-7.18,6-10.67,12.57-10.22,21.78.37,7.59.22,15.2,0,22.8A6.82,6.82,0,0,0,41.66,115c4.9,3.41,9.58,7.16,15.08,11.32H13.18c5.45-4.13,10.29-8,15.34-11.52a6.52,6.52,0,0,0,3.05-6.2q-.27-12.7-.05-25.42a20.54,20.54,0,0,0-8.16-17.44,112.84,112.84,0,0,1-10.14-9.41C1.11,43.87-.95,28.39.33,12,.63,8.3,1.67,4.62,2.37.92Z"/><path id="Path_70" data-name="Path 70" class="cls-1" d="M34.89,49.67a20.4,20.4,0,0,1-15.4-8.48c-7.56-9.77-9.58-21-8.84-33.09.11-1.86-.78-3.79-1.38-6.46a169.41,169.41,0,0,1,52.42.85c-15,3.78-30.23,3-45.35,2.25C10.91,19.44,19.26,40.35,34.89,49.67Z"/></g></g></g></g></svg>