<svg xmlns="http://www.w3.org/2000/svg" viewBox="0 0 114.11 257.96"><defs><style>.cls-1{fill:#b09ccb;}</style></defs><g id="Layer_2" data-name="Layer 2"><g id="Layer_1-2" data-name="Layer 1"><g id="Group_126" data-name="Group 126"><path id="Path_6" data-name="Path 6" class="cls-1" d="M11.14,256.73c9.25-3.3,18.7-6.17,27.72-10.05s13.4-10.91,13.23-21.16c-.33-22.29.15-44.6-.17-66.89-.3-21.23-8.66-39-23.54-54.23C8.19,83.79-2.25,59.23.41,29.89c.12-1.36.17-2.74.36-4.1C4.11,2.58,8-.24,31,.29,51.57.78,72.16.58,92.72,0c8.59-.23,13.16,3,16,11,11.11,31.92,5.1,61.8-17.22,85.24-23.82,25-32.55,52.89-30.36,86.05a335.38,335.38,0,0,1,0,39.09c-.76,15,6.32,23.94,19.92,28.49,7,2.36,14.23,4.33,21.25,8.1H11Zm92-186.84c8-20.18,8.7-38.93,1.27-57.48C103,9,98,4.81,94.49,4.72c-25.3-.65-50.63-.48-75.95-.13-2.77,0-7,2.19-8,4.5C3.58,24,1.89,39.52,6.67,56.73,29.15,47,49.19,53.35,69.59,62.12c10.35,4.45,22.26,5.28,33.57,7.77Z"/></g></g></g></svg>